<?xml version="1.0" encoding="UTF-8" standalone="no"?>
<!-- Created with Inkscape (http://www.inkscape.org/) -->

<svg
   xmlns:dc="http://purl.org/dc/elements/1.1/"
   xmlns:cc="http://creativecommons.org/ns#"
   xmlns:rdf="http://www.w3.org/1999/02/22-rdf-syntax-ns#"
   xmlns:svg="http://www.w3.org/2000/svg"
   xmlns="http://www.w3.org/2000/svg"
   xmlns:sodipodi="http://sodipodi.sourceforge.net/DTD/sodipodi-0.dtd"
   xmlns:inkscape="http://www.inkscape.org/namespaces/inkscape"
   width="210mm"
   height="297mm"
   viewBox="0 0 210 297"
   version="1.1"
   id="svg8"
   inkscape:version="0.92.5 (2060ec1f9f, 2020-04-08)"
   sodipodi:docname="end.svg">
  <defs
     id="defs2" />
  <sodipodi:namedview
     id="base"
     pagecolor="#ffffff"
     bordercolor="#666666"
     borderopacity="1.0"
     inkscape:pageopacity="0.0"
     inkscape:pageshadow="2"
     inkscape:zoom="0.49497475"
     inkscape:cx="261.18259"
     inkscape:cy="449.6912"
     inkscape:document-units="mm"
     inkscape:current-layer="layer1"
     showgrid="false"
     inkscape:window-width="1920"
     inkscape:window-height="1017"
     inkscape:window-x="-8"
     inkscape:window-y="-8"
     inkscape:window-maximized="1" />
  <metadata
     id="metadata5">
    <rdf:RDF>
      <cc:Work
         rdf:about="">
        <dc:format>image/svg+xml</dc:format>
        <dc:type
           rdf:resource="http://purl.org/dc/dcmitype/StillImage" />
        <dc:title></dc:title>
      </cc:Work>
    </rdf:RDF>
  </metadata>
  <g
     inkscape:label="Layer 1"
     inkscape:groupmode="layer"
     id="layer1">
    <path
       style="font-style:normal;font-variant:normal;font-weight:bold;font-stretch:normal;font-size:35.27777481px;line-height:1.25;font-family:IMPACT;-inkscape-font-specification:'IMPACT Bold';text-align:center;writing-mode:lr-tb;direction:ltr;text-anchor:middle;fill:#000000;fill-opacity:1;fill-rule:nonzero;stroke:none;stroke-width:3;stroke-linecap:round;stroke-linejoin:round;stroke-miterlimit:4;stroke-dasharray:none;stroke-dashoffset:0;stroke-opacity:1;paint-order:stroke markers fill"
       d="m -81.028127,1.9187946 c -13.892908,-0.293453 -10.531893,37.0111744 3.427698,26.4753874 7.118146,7.65004 5.140836,-7.953902 5.236374,-12.970785 -13.175916,-3.488656 -4.180366,7.194354 -9.353436,10.249503 -1.085802,-5.091232 0.146629,-27.5044744 2.101681,-12.902054 11.977298,4.010448 7.978846,-11.82480737 -1.412317,-10.8520514 z m 56.637367,0 c -13.594799,0.718646 -12.129909,36.9643224 5.35678,27.6985694 10.6788808,-12.117618 -6.42985,-12.981684 -6.32158,-3.979088 -1.50559,-5.830236 0.79813,-27.8667154 2.39417,-12.128859 10.68354,7.843803 9.87562,-12.97945237 -1.42937,-11.5906224 z m 46.697931,0 c -21.5174102,-0.783492 8.66679,30.4725584 -0.91261,20.6424594 -12.2103802,-11.030431 -3.57233,20.765955 8.9054,5.092404 4.88263,-12.319807 -19.12703,-24.1822714 -1.69673,-16.708541 6.15516,0.475941 -1.46713,-12.7056264 -6.29606,-9.0263224 z m 43.08109,0 c -20.52217,2.474834 -1.66356,47.6069754 8.33695,20.5069324 -0.6561,-7.344331 3.35844,-20.6445354 -8.33695,-20.5069324 z m -134.96179,0.585494 c 0,9.2960734 0,18.5921474 0,27.8882194 12.366707,7.103951 4.025651,-18.781456 9.456788,-9.267134 -4.694317,9.241964 9.128802,14.11629 6.735505,3.098501 -6.126786,-8.069003 4.765215,-13.641115 -4.117062,-21.3232284 -3.993536,-0.618028 -8.051699,-0.329964 -12.075231,-0.396358 z m 21.049879,0 c -1.228865,9.2960734 -2.457733,18.5921474 -3.686598,27.8882194 8.34976,5.033359 9.4445,-12.516598 10.897199,-0.09051 10.866549,3.678637 6.05918,-6.837005 5.43285,-13.332597 -1.21646,-7.5821294 -0.008,-17.9773604 -10.789222,-14.4651164 h -1.233728 z m 35.45003,0 c 0,9.2960734 0,18.5921474 0,27.8882194 11.1546708,3.391271 6.2422408,-9.284554 7.2517508,-16.038446 -0.83379,-7.0077524 3.51873,-14.36099337 -7.2517508,-11.8497734 z m 12.2297508,0 c -1.2287,9.2960734 -2.45739,18.5921474 -3.68608,27.8882194 8.34929,5.033269 9.44475,-12.516651 10.89719,-0.09051 10.8666102,3.678627 6.0590602,-6.836987 5.4326102,-13.33256 -1.21662,-7.5821174 -0.008,-17.9773864 -10.7895002,-14.4651534 h -1.23372 z m 40.3422402,0 c 0,9.2960734 0,18.5921474 0,27.8882194 13.55271,5.156999 0.92411,-14.646489 13.03951,-11.885578 C 60.489351,7.1172786 51.710611,0.30748363 39.498371,2.5042886 Z m 37.00032,0 c 0,9.2960734 0,18.5921474 0,27.8882194 12.366637,7.103626 4.024497,-18.782236 9.456787,-9.267134 -4.69417,9.241692 9.12833,14.116372 6.73499,3.098501 -6.12548,-8.068932 4.76487,-13.641059 -4.11655,-21.3232284 -3.99354,-0.617991 -8.05169,-0.329983 -12.075227,-0.396358 z m -11.07581,4.134115 c 2.91697,3.9336314 0.32628,28.3214554 -1.17151,13.5868634 0.5371,-4.345289 -1.20035,-10.156301 1.17151,-13.5868634 z m -127.744139,0.637687 c 6.089783,2.091087 -1.755449,12.9338194 0,0 z m 109.071379,0 c 6.88288,3.3597364 -2.7655,13.8989724 0,0 z m 37.000317,0 c 6.09107,2.090021 -1.75583,12.9343114 0,0 z m -126.727656,1.463993 c 3.436319,12.5737504 -4.093086,18.7105944 0,0 z m 47.6802888,0 c 3.43633,12.5737504 -4.09309,18.7105944 0,0 z M -63.062297,46.015844 c -21.517388,-0.782822 8.666625,30.471829 -0.912606,20.642977 -12.20968,-11.032154 -3.57305,20.766333 8.905398,5.091887 4.882843,-12.319589 -19.127001,-24.182082 -1.69673,-16.70854 6.155457,0.476184 -1.467652,-12.705657 -6.296062,-9.026324 z m 128.795238,0 c -20.52311,2.475077 -1.66349,47.60781 8.33695,20.50719 -0.65606,-7.344674 3.35843,-20.643723 -8.33695,-20.50719 z m -117.908566,0.58601 c 1.72529,9.66316 -5.351586,26.810112 8.561234,28.473714 13.166971,-2.100794 6.319552,-18.8401 8.026902,-28.341989 -10.449162,-3.664219 -6.658987,8.043175 -7.251754,14.672993 0.09333,15.669376 -3.42368,2.157862 -2.084629,-6.230599 0.482823,-6.882582 0.846529,-10.170464 -7.251753,-8.574119 z m 24.356655,0 c 0.33685,7.06564 7.15092,7.654052 4.28914,17.918324 -4.78837,8.635354 7.82916,15.544837 7.25227,5.034476 1.90161,-5.324377 -4.39662,-18.848586 4.3062,-17.371743 3.0544608,-10.082077 -10.40232,-3.877524 -15.84761,-5.581057 z m 17.501261,0 c 0,9.295902 0,18.591802 0,27.887705 11.1546698,3.39127 6.2422398,-9.284555 7.2517498,-16.038446 -0.83378,-7.0078 3.51872,-14.360409 -7.2517498,-11.849259 z m 10.1972998,0 c 0,9.295902 0,18.591802 0,27.887705 6.38766,2.72906 19.5832102,-2.87433 8.87377,-5.581055 -7.87077,-3.837593 10.9493202,-10.080125 -0.79272,-11.437546 -4.77221,-4.819673 12.2390402,-9.993889 -0.92366,-10.869104 -2.3858,0 -4.77159,0 -7.15739,0 z m 14.6761102,0 c 0,9.295902 0,18.591802 0,27.887705 10.66283,3.203636 4.93129,-9.987106 6.33915,-16.038446 1.09339,-3.97967 7.34708,17.69065 3.90385,16.038446 7.05429,-0.417769 3.30452,-13.189958 5.79426,-18.827274 1.91176,5.597731 -4.178,19.196971 3.70118,18.827274 6.05158,-1.407446 0.96337,-13.954686 2.63746,-19.739626 5.113,-9.27763 -11.05769,-12.247946 -10.07845,-3.252486 -2.74714,18.244299 1.7385,-7.854378 -7.8443,-4.895593 -1.48438,0 -2.96877,0 -4.45315,0 z m 25.28735,0 c 0,9.295902 0,18.591802 0,27.887705 13.55271,5.156996 0.92411,-14.646492 13.03951,-11.885581 7.95155,-11.389971 -0.82824,-18.198666 -13.03951,-16.002124 z m 25.924,4.134114 c 2.9184,3.933257 0.32592,28.321577 -1.17099,13.586349 0.537,-4.34504 -1.20002,-10.156399 1.17099,-13.586349 z m -18.67225,0.637173 c 6.88308,3.359509 -2.76578,13.899679 0,0 z M -118.33851,134.21046 c -20.52296,2.47512 -1.66374,47.60699 8.33696,20.50693 -0.65611,-7.34443 3.35846,-20.64422 -8.33696,-20.50693 z m 135.392251,0 c -20.5229602,2.47512 -1.66374,47.60699 8.33696,20.50693 -0.65611,-7.34443 3.35846,-20.64422 -8.33696,-20.50693 z m 99.838869,0 c -20.522962,2.47512 -1.66376,47.60699 8.33697,20.50693 -0.65612,-7.34443 3.35843,-20.64422 -8.33697,-20.50693 z m 42.23671,0.0517 c -15.86953,5.15153 -1.22582,15.74194 1.44692,4.85759 0.29626,9.2876 -19.34628,27.67519 0.89517,23.56445 16.87933,-2.5229 -11.95372,-4.10074 2.50245,-11.91995 5.19578,-5.35089 5.12797,-17.31977 -4.84454,-16.50209 z m 18.56888,0 c -13.05174,0.80788 -11.48723,34.01154 3.94496,28.40499 6.06671,-4.51724 8.02992,-28.95383 -3.94496,-28.40499 z m 18.08676,0 c -15.86918,5.1505 -1.22571,15.7426 1.44692,4.85759 0.29641,9.28763 -19.34554,27.67528 0.89567,23.56445 16.87867,-2.52307 -11.95483,-4.10089 2.50224,-11.91995 5.19597,-5.35062 5.12771,-17.32042 -4.84483,-16.50209 z m -409.19105,0.53382 c 0,9.29607 0,18.59215 0,27.88822 13.55272,5.157 0.92411,-14.64649 13.03951,-11.88558 7.95148,-11.38965 -0.82727,-18.19945 -13.03951,-16.00264 z m 17.70796,0 c 0,9.29607 0,18.59215 0,27.88822 12.36665,7.10362 4.02451,-18.78224 9.45679,-9.26714 -4.69417,9.2417 9.12833,14.11638 6.73499,3.09851 -6.12619,-8.06856 4.76543,-13.64235 -4.11706,-21.32323 -3.99337,-0.61802 -8.05136,-0.32997 -12.07472,-0.39636 z m 19.01693,0 c 0,9.29607 0,18.59215 0,27.88822 6.38767,2.72918 19.58257,-2.87446 8.87325,-5.58106 -7.87137,-3.83804 10.94995,-10.08026 -0.7922,-11.43754 -4.77439,-4.81961 12.23997,-9.99423 -0.92367,-10.86962 -2.38579,0 -4.77159,0 -7.15738,0 z m 14.67611,0 c 0,9.29607 0,18.59215 0,27.88822 10.66253,3.20351 4.93055,-9.9875 6.33863,-16.03845 1.09338,-3.97967 7.34708,17.69065 3.90385,16.03845 7.05429,-0.41777 3.30452,-13.18996 5.79426,-18.82727 1.91176,5.59773 -4.178,19.19697 3.70118,18.82727 6.05243,-1.40678 0.9638,-13.9546 2.63797,-19.73963 5.113,-9.27769 -11.05732,-12.24881 -10.07845,-3.253 -2.74691,18.24429 1.73755,-7.85431 -7.84481,-4.89559 -1.48421,0 -2.96842,0 -4.45263,0 z m 25.28683,0 c 0,9.29607 0,18.59215 0,27.88822 11.15467,3.39127 6.24224,-9.28456 7.25175,-16.03845 -0.8338,-7.00775 3.51873,-14.36099 -7.25175,-11.84977 z m 35.69136,0 c 0,9.29607 0,18.59215 0,27.88822 6.387667,2.72918 19.582562,-2.87446 8.873242,-5.58106 -7.871372,-3.83804 10.949948,-10.08026 -0.792202,-11.43754 -4.774382,-4.81961 12.239974,-9.99423 -0.923666,-10.86962 -2.385792,0 -4.771585,0 -7.157374,0 z m 14.6761,0 c 0,9.29607 0,18.59215 0,27.88822 11.423303,2.48015 20.084801,-3.34232 16.794842,-15.68764 2.904262,-12.63073 -7.404095,-12.82669 -16.794842,-12.20058 z m 19.395717,0 c 1.725401,9.66315 -5.351825,26.81047 8.561234,28.47371 13.16682,-2.10023 6.319631,-18.83979 8.0269,-28.34147 -10.448268,-3.66556 -6.659533,8.04263 -7.251753,14.67248 0.09343,15.66939 -3.423726,2.15872 -2.084628,-6.23008 0.482645,-6.88247 0.846818,-10.17121 -7.251753,-8.57464 z m 21.428665,0 c -1.228865,9.29607 -2.45773,18.59215 -3.686596,27.88822 8.349755,5.03336 9.444505,-12.5166 10.897195,-0.0905 10.866549,3.67864 6.05918,-6.837 5.43285,-13.33259 -1.21646,-7.58213 -0.008,-17.97736 -10.789217,-14.46512 h -1.233728 z m 15.881718,0 c 0,9.29607 0,18.59215 0,27.88822 12.36664,7.10362 4.0245,-18.78224 9.45679,-9.26714 -4.69417,9.2417 9.128331,14.11638 6.73499,3.09851 -6.1255,-8.06893 4.7648808,-13.64107 -4.11655,-21.32323 -3.99354,-0.61799 -8.0517,-0.32998 -12.07523,-0.39636 z m 19.016931,0 c 0,9.29607 0,18.59215 0,27.88822 11.4232998,2.48015 20.0847898,-3.34232 16.7948398,-15.68764 2.90426,-12.63073 -7.4041,-12.82669 -16.7948398,-12.20058 z m 47.02555,0 c -1.22869,9.29607 -2.45739,18.59215 -3.68608,27.88822 8.34968,5.0331 9.44401,-12.51681 10.89719,-0.0905 10.86647,3.67871 6.05833,-6.83744 5.43234,-13.33259 -1.21646,-7.58213 -0.008,-17.97736 -10.78922,-14.46512 h -1.23373 z m 15.88172,0 c 0,9.29607 0,18.59215 0,27.88822 10.78631,3.8062 24.52744,-6.89466 12.57494,-15.0549 12.09471,-10.06174 -3.78234,-14.53449 -12.57494,-12.83332 z m 21.53202,0 c -1.2287,9.29607 -2.45739,18.59215 -3.68608,27.88822 8.34967,5.0331 9.444007,-12.51681 10.897187,-0.0905 10.86647,3.67871 6.05832,-6.83744 5.43234,-13.33259 -1.21646,-7.58213 -0.008,-17.97736 -10.789217,-14.46512 h -1.23373 z m 15.881707,0 c 0,9.29607 0,18.59215 0,27.88822 12.366712,7.10395 4.02565,-18.78146 9.45679,-9.26714 -4.69432,9.24197 9.128802,14.1163 6.735502,3.09851 -6.126772,-8.06901 4.76522,-13.64112 -4.11706,-21.32323 -3.993532,-0.61803 -8.051692,-0.32996 -12.075232,-0.39636 z m 40.342242,0 c -1.2287,9.29607 -2.45737,18.59215 -3.68607,27.88822 8.34967,5.0331 9.44401,-12.51681 10.89718,-0.0905 10.86647,3.67871 6.05832,-6.83744 5.43235,-13.33259 -1.21645,-7.58213 -0.008,-17.97736 -10.78921,-14.46512 H 130.656 Z m 82.87194,0 c -15.81745,5.60435 2.10407,12.30136 -2.85977,25.27395 4.1326,8.75488 9.77543,-2.92498 6.95928,-9.723 -1.64333,-4.62062 3.92718,-17.52252 -4.09951,-15.55095 z m -35.05419,3.75533 c 2.63847,3.4375 1.3657,27.45866 -1.27434,15.71614 0.62399,-5.04737 -1.37261,-11.66662 1.27434,-15.71614 z m -296.15762,0.37879 c 2.91838,3.93378 0.32595,28.32166 -1.17099,13.58686 0.53698,-4.3453 -1.2,-10.1562 1.17099,-13.58686 z m 135.392251,0 c 2.91838,3.93377 0.32595,28.32166 -1.17099,13.58686 0.53698,-4.3453 -1.2,-10.1562 1.17099,-13.58686 z m 99.838859,0 c 2.91839,3.93377 0.32596,28.32166 -1.17099,13.58686 0.53699,-4.3453 -1.19999,-10.1562 1.17099,-13.58686 z m -323.08105,0.63768 c 6.88288,3.35975 -2.76549,13.89897 0,0 z m 17.70797,0 c 6.09069,2.09016 -1.75545,12.93502 0,0 z m 109.347325,0 c 6.106285,2.0224 -0.268496,27.7115 0,12.1765 0,-4.05883 0,-8.11767 0,-12.1765 z m 56.706095,0 c 6.09107,2.09001 -1.75582,12.93433 0,0 z m 19.0169308,0 c 6.1075,2.02218 -0.26843,27.71189 0,12.1765 0,-4.05883 0,-8.11767 0,-12.1765 z m 62.9077902,0 c 6.36247,3.34008 -2.54155,9.99075 0,0.0325 z m 37.413727,0 c 6.089782,2.09108 -1.75545,12.93383 0,0 z m -136.925487,1.464 c 3.43633,12.57375 -4.093089,18.71059 0,0 z m 81.9242,0 c 3.4369,12.57376 -4.0923,18.71056 0,0 z m 37.413737,0 c 3.4369,12.57376 -4.092297,18.71056 0,0 z m 56.223952,0 c 3.43691,12.57377 -4.09228,18.71055 0,0 z m -76.050129,9.07799 c 6.937,4.12662 -2.54668,13.87232 0,0 z m -138.148676,28.19774 c -13.89213,-0.29215 -10.531573,37.01057 3.428214,26.4759 7.118551,7.64879 5.140592,-7.95406 5.236374,-12.97079 -13.175393,-3.48845 -4.180821,7.1935 -9.353433,10.24899 -1.087282,-5.09089 0.146827,-27.50376 2.10168,-12.90205 11.97765,4.01022 7.978492,-11.8246 -1.412835,-10.85205 z m 161.713123,0 c -20.523107,2.47507 -1.66349,47.6078 8.33696,20.50719 -0.65608,-7.34468 3.35842,-20.64373 -8.33696,-20.50719 z m 64.767612,0 c -13.89208,-0.29228 -10.53147,37.01043 3.42771,26.4759 7.1188,7.64891 5.14135,-7.95368 5.2369,-12.97079 -13.1761,-3.48803 -4.18103,7.19294 -9.35345,10.24899 -1.08707,-5.0906 0.14661,-27.5036 2.10116,-12.90205 11.9779,4.01018 7.97896,-11.82359 -1.41232,-10.85205 z m 19.63706,0 c -20.52233,2.47475 -1.66333,47.60779 8.33697,20.50719 -0.65606,-7.34458 3.35838,-20.64404 -8.33697,-20.50719 z m 18.37976,0 c -21.51864,-0.78329 8.66735,30.47221 -0.91313,20.64297 -12.20925,-11.03198 -3.57288,20.76655 8.9054,5.09189 4.88373,-12.31979 -19.1271,-24.182 -1.69672,-16.70854 6.15537,0.47603 -1.46667,-12.7056 -6.29555,-9.02632 z m -374.20662,0.586 c -1.22869,9.29591 -2.45738,18.59181 -3.68608,27.88771 8.34929,5.03327 9.44476,-12.51665 10.8972,-0.0905 10.86662,3.67863 6.05904,-6.83698 5.43257,-13.33255 -1.21651,-7.58207 -0.008,-17.97689 -10.78946,-14.46465 h -1.23373 z m 15.88224,0 c 0,9.29591 0,18.59181 0,27.88771 12.36664,7.10363 4.0245,-18.78224 9.45678,-9.26713 -4.69416,9.24169 9.12834,14.11637 6.73499,3.0985 -6.12613,-8.06849 4.76542,-13.64172 -4.11706,-21.32323 -3.99341,-0.61752 -8.05136,-0.32941 -12.07471,-0.39585 z m 17.77669,0 c 0.33685,7.06564 7.15093,7.65406 4.28914,17.91833 -4.78822,8.63503 7.82875,15.54493 7.25176,5.03447 1.9016,-5.32437 -4.39663,-18.84858 4.30619,-17.37174 3.05444,-10.08198 -10.40182,-3.87758 -15.84709,-5.58106 z m 17.50074,0 c 0,9.29591 0,18.59181 0,27.88771 6.38766,2.72906 19.5832,-2.87433 8.87376,-5.58105 -7.87077,-3.8376 10.94933,-10.08013 -0.79271,-11.43755 -4.77221,-4.81967 12.23904,-9.99389 -0.92367,-10.86911 -2.38579,0 -4.77159,0 -7.15738,0 z m 20.87728,0 c 0,9.29591 0,18.59181 0,27.88771 11.42365,2.48009 20.084766,-3.34189 16.794836,-15.68764 2.904845,-12.63108 -7.404306,-12.82614 -16.794836,-12.20007 z m 19.499582,0 c 0,9.29591 0,18.59181 0,27.88771 11.154672,3.39127 6.242243,-9.28455 7.251753,-16.03845 -0.833774,-7.0078 3.51872,-14.3604 -7.251753,-11.84926 z m 29.62765,0 c 0,9.29591 0,18.59181 0,27.88771 11.154671,3.39127 6.242243,-9.28455 7.251752,-16.03845 -0.833773,-7.0078 3.518721,-14.3604 -7.251752,-11.84926 z m 8.957074,0 c 0.336849,7.06564 7.150928,7.65406 4.289144,17.91833 -4.788365,8.63535 7.829156,15.54484 7.252269,5.03447 1.901606,-5.32437 -4.396629,-18.84859 4.3062,-17.37174 3.054452,-10.08208 -10.402319,-3.87752 -15.847613,-5.58106 z m 18.155995,0 c -1.22886,9.29591 -2.457729,18.59181 -3.686594,27.88771 8.349764,5.03336 9.444504,-12.5166 10.897194,-0.0905 10.866559,3.67864 6.059169,-6.837 5.432819,-13.33259 -1.21636,-7.58207 -0.008,-17.97686 -10.789189,-14.46461 h -1.23373 z m 15.881719,0 c 0,9.29591 0,18.59181 0,27.88771 6.96749,3.37108 18.4291908,-4.44648 7.25175,-5.58105 0,-7.43556 0,-14.8711 0,-22.30666 -2.41725,0 -4.8345,0 -7.25175,0 z m 34.588591,0 c 1.39526,9.29591 2.79052,18.59181 4.18579,27.88771 10.08879,2.63243 13.09956,-2.81041 12.62393,-12.23086 -0.011,-6.76736 6.30552,-19.08076 -5.33261,-15.65685 -1.72874,8.60599 -1.66609,29.06622 -2.94076,8.14147 0.0952,-8.58164 -0.94556,-8.75351 -8.53635,-8.14147 z m 20.1197,0 c 0,9.29591 0,18.59181 0,27.88771 11.15467,3.39127 6.24224,-9.28455 7.25175,-16.03845 -0.83377,-7.0078 3.51872,-14.3604 -7.25175,-11.84926 z m 10.19731,0 c 0,9.29591 0,18.59181 0,27.88771 11.42348,2.48014 20.08474,-3.34215 16.79484,-15.68764 2.90423,-12.63083 -7.40427,-12.82622 -16.79484,-12.20007 z m 19.49907,0 c 0,9.29591 0,18.59181 0,27.88771 6.38765,2.72906 19.583197,-2.87433 8.87376,-5.58105 -7.87077,-3.8376 10.949317,-10.08013 -0.79272,-11.43755 -4.77221,-4.81967 12.239047,-9.99389 -0.92366,-10.86911 -2.3858,0 -4.77159,0 -7.15738,0 z m 35.587997,0 c -1.01725,7.41361 2.14202,17.34728 -1.80867,23.06475 -2.09728,12.33064 15.031362,-1.47354 9.060432,-11.82948 -0.8171,-7.05883 3.52389,-13.69146 -7.251762,-11.23527 z m 9.990612,0 c 1.72508,9.66312 -5.35111,26.80978 8.56123,28.47372 13.1672,-2.10024 6.31943,-18.84015 8.0269,-28.34199 -10.44916,-3.66422 -6.65898,8.04317 -7.25175,14.67299 0.093,15.66938 -3.42278,2.15784 -2.08411,-6.2306 0.48308,-6.88309 0.84608,-10.17031 -7.25227,-8.57412 z m 19.39623,0 c 0,9.29591 0,18.59181 0,27.88771 6.38768,2.72918 19.58258,-2.87445 8.87325,-5.58105 -7.87106,-3.83797 10.9501,-10.07986 -0.79221,-11.43755 -4.77406,-4.81934 12.23986,-9.99374 -0.92366,-10.86911 -2.3858,0 -4.77158,0 -7.15738,0 z m -42.082182,4.13412 c 2.9184,3.93326 0.32592,28.32158 -1.17099,13.58635 0.537,-4.34504 -1.20002,-10.1564 1.17099,-13.58635 z m 84.405172,0 c 2.91703,3.9331 0.32626,28.32137 -1.1715,13.58635 0.53711,-4.34504 -1.20036,-10.15649 1.1715,-13.58635 z m -332.72748,0.63717 c 6.09049,2.09014 -1.75509,12.93581 0,0 z m 56.15523,0 c 6.10626,2.02241 -0.26845,27.71152 0,12.1765 0,-4.05883 0,-8.11767 0,-12.1765 z m 157.027101,0 c 6.10748,2.0222 -0.26837,27.7119 0,12.1765 0,-4.05883 0,-8.11767 0,-12.1765 z m -230.769371,1.46399 c 3.43634,12.57419 -4.09308,18.7115 0,0 z m 148.276741,0 c 3.436339,12.57419 -4.0931,18.7115 0,0 z m 29.1454998,7.82071 c -3.37031,10.90353 18.3094802,1.64468 5.44555,0 -1.81518,0 -3.63037,0 -5.44555,0 z M -224.43022,261.54119 c -12.94426,13.67422 17.91033,-4.01486 0,0 z m 265.582231,0 c -12.9449,13.67425 17.91173,-4.01508 0,0 z m -301.531981,4.96094 c -13.59499,0.71885 -12.12982,36.9647 5.3573,27.69857 10.67741,-12.11861 -6.42967,-12.9807 -6.3221,-3.9791 -1.50406,-5.83033 0.79761,-27.86665 2.39469,-12.12887 10.68336,7.84387 9.87451,-12.97995 -1.42989,-11.5906 z m 99.15002,0 c -20.52296,2.47512 -1.66374,47.60698 8.33696,20.50693 -0.65611,-7.34441 3.35847,-20.64422 -8.33696,-20.50693 z m 18.37924,0 c -21.51741,-0.78351 8.66681,30.47257 -0.9126,20.64245 -12.21039,-11.0304 -3.57233,20.76593 8.9054,5.09241 4.88263,-12.3198 -19.12704,-24.18228 -1.69673,-16.70855 6.15515,0.47596 -1.46713,-12.70563 -6.29607,-9.02631 z m 112.67219,0 c -13.892901,-0.29348 -10.531899,37.01116 3.4277,26.47537 7.11813,7.65009 5.14084,-7.95388 5.23637,-12.97077 -13.175919,-3.48867 -4.18036,7.19436 -9.35343,10.24951 -1.085799,-5.09122 0.14662,-27.50447 2.10168,-12.90207 11.9773,4.01045 7.97884,-11.82481 -1.41232,-10.85204 z m 56.637371,0 c -13.5948,0.71864 -12.12992,36.96428 5.35678,27.69857 10.6789,-12.11763 -6.42986,-12.98165 -6.32158,-3.9791 -1.50559,-5.83022 0.79813,-27.86671 2.39417,-12.12887 10.68353,7.84381 9.87564,-12.97942 -1.42937,-11.5906 z m 95.532149,0.0517 c -13.05174,0.80788 -11.48723,34.01156 3.94499,28.40498 6.06666,-4.51726 8.02992,-28.95383 -3.94499,-28.40498 z m 18.94821,0 c -13.052,0.80696 -11.48707,34.01113 3.94446,28.40498 6.06669,-4.51628 8.02995,-28.95401 -3.94446,-28.40498 z m -390.00204,0.53383 c 0,9.29608 0,18.59213 0,27.88822 12.36665,7.10364 4.02451,-18.78227 9.45679,-9.26714 -4.69417,9.24168 9.12833,14.11637 6.73499,3.09851 -6.12548,-8.06895 4.76488,-13.64107 -4.11654,-21.32325 -3.99355,-0.61798 -8.0517,-0.32996 -12.07524,-0.39634 z m 19.01693,0 c 0,9.29608 0,18.59213 0,27.88822 6.38768,2.72917 19.58257,-2.87446 8.87325,-5.58107 -7.87137,-3.83805 10.94995,-10.08025 -0.7922,-11.43754 -4.7744,-4.81962 12.23997,-9.99424 -0.92367,-10.86961 -2.38579,0 -4.77159,0 -7.15738,0 z m 14.67611,0 c 0,9.29608 0,18.59213 0,27.88822 11.4233,2.48015 20.0848,-3.34235 16.79484,-15.68765 2.90426,-12.63073 -7.4041,-12.82668 -16.79484,-12.20057 z m 19.49906,0 c 0,9.29608 0,18.59213 0,27.88822 11.15494,3.39135 6.243,-9.28415 7.25228,-16.03844 -0.83363,-7.00825 3.51854,-14.36097 -7.25228,-11.84978 z m 8.9576,0 c 0.33685,7.06562 7.15092,7.65405 4.28914,17.91829 -4.78805,8.63497 7.82843,15.54581 7.25175,5.03502 1.90155,-5.3246 -4.39652,-18.84883 4.3062,-17.37227 3.05444,-10.08198 -10.40184,-3.87758 -15.84709,-5.58104 z m 68.41959,0 c 0,9.29608 0,18.59213 0,27.88822 12.36665,7.10364 4.0245,-18.78227 9.45679,-9.26714 -4.69417,9.24168 9.12833,14.11637 6.73499,3.09851 -6.12619,-8.06858 4.765422,-13.64237 -4.11706,-21.32325 -3.99337,-0.61801 -8.05136,-0.32996 -12.07472,-0.39634 z m 18.913573,0 c 1.725409,9.66306 -5.351703,26.8098 8.560718,28.47369 13.167482,-2.09955 6.320147,-18.83971 8.027419,-28.34148 -10.448499,-3.66554 -6.66029,8.04222 -7.252272,14.67249 0.0933,15.66937 -3.422856,2.15847 -2.084109,-6.23006 0.482645,-6.88247 0.846812,-10.17122 -7.251756,-8.57464 z m 18.155483,0 c 0.336857,7.06562 7.150923,7.65405 4.289142,17.91829 -4.788053,8.63497 7.828428,15.54581 7.251756,5.03502 1.90155,-5.32479 -4.396727,-18.84939 4.306713,-17.37227 3.054455,-10.08206 -10.402332,-3.8775 -15.847611,-5.58104 z m 17.501256,0 c 0,9.29608 0,18.59213 0,27.88822 11.736062,5.99262 4.257921,-14.0597 9.422165,-10.47978 -4.620027,8.57253 7.520029,16.37311 7.251753,5.54487 0,-7.65111 0,-15.3022 0,-22.95331 -10.983865,-6.67216 -5.173748,15.59242 -9.422165,7.50609 0.840404,-7.18211 0.27626,-8.62893 -7.251753,-7.50609 z m 47.232258,0 c -1.22886,9.29608 -2.45773,18.59213 -3.6866,27.88822 8.34978,5.03338 9.444501,-12.51665 10.8972008,-0.0905 10.86651,3.67871 6.05921,-6.83697 5.43285,-13.33257 -1.21646,-7.58214 -0.008,-17.97735 -10.7892208,-14.46511 h -1.23373 z m 15.8817208,0 c 0,9.29608 0,18.59213 0,27.88822 12.3666402,7.10364 4.0245,-18.78227 9.45678,-9.26714 -4.69416,9.24168 9.1283402,14.11637 6.7349902,3.09851 -6.1254702,-8.06895 4.76488,-13.64107 -4.11654,-21.32325 -3.9935402,-0.61798 -8.0517002,-0.32996 -12.0752302,-0.39634 z m 38.5852402,0 c 0,9.29608 0,18.59213 0,27.88822 11.15467,3.39127 6.24224,-9.28455 7.25175,-16.03844 -0.8338,-7.00775 3.51873,-14.361 -7.25175,-11.84978 z m 12.22974,0 c -1.22869,9.29608 -2.45738,18.59213 -3.68608,27.88822 8.34931,5.03327 9.44475,-12.5167 10.8972,-0.0905 10.86657,3.67868 6.05908,-6.83694 5.43261,-13.33254 -1.21662,-7.58211 -0.008,-17.97738 -10.7895,-14.46514 h -1.23372 z m 28.870077,0 c -9.923407,0.45619 -10.482337,29.22248 1.23372,27.88822 0.10266,-3.88401 -3.154967,-13.22533 -1.715857,-21.08399 -1.39309,-3.04188 7.573447,-5.64935 0.482137,-6.80423 z m 83.681182,0 c 0,9.29608 0,18.59213 0,27.88822 11.00312,3.33721 5.8198,-9.51201 6.95929,-16.03844 3.3714,-7.27352 2.48274,20.37117 2.1704,16.03844 10.90483,3.33129 5.87896,-9.26809 6.95925,-15.76134 -1.78218,-9.50952 -9.36132,-5.79802 -11.59711,-12.12688 -1.49727,0 -2.99455,0 -4.49183,0 z m 74.20737,0 c -2.26385,10.01466 19.8474,-1.64656 0,0 z m 26.45834,0 c 3.20002,5.775 3.06461,15.00589 2.51507,23.47865 -5.9781,11.37409 12.31355,-3.10433 6.45957,-13.51527 0.50448,-6.74796 -0.33444,-11.56803 -8.97464,-9.96338 z m -111.05267,1.98125 c -2.65628,5.84173 1.15891,9.94823 0,18.32068 -0.60536,12.61961 15.47911,7.79372 6.97633,-1.34073 -1.24855,-8.45206 4.24254,-12.43922 -1.23373,-16.97995 -1.91421,0 -3.82839,0 -5.7426,0 z m 74.20737,0 c -2.65633,5.84176 1.1589,9.94817 0,18.32068 -0.60531,12.61961 15.47908,7.79372 6.97632,-1.34073 -1.24854,-8.45203 4.24249,-12.43922 -1.23372,-16.97995 -1.91421,0 -3.82839,0 -5.7426,0 z m -104.23137,1.77406 c 2.63844,3.43754 1.36569,27.45867 -1.27434,15.71614 0.62399,-5.04738 -1.37261,-11.66664 1.27434,-15.71614 z m 18.9482,0 c 2.63829,3.43842 1.36599,27.45843 -1.27487,15.71614 0.62413,-5.04735 -1.37303,-11.66675 1.27487,-15.71614 z m -302.29007,0.3788 c 2.91839,3.93377 0.32595,28.32166 -1.17099,13.58686 0.53699,-4.34531 -1.19999,-10.15622 1.17099,-13.58686 z m 255.626248,0.48265 c -6.08822,0.83095 -14.69999,-1.28965 -11.45511,11.51695 0.97469,6.34843 -3.81914,18.46537 6.95926,15.0101 -2.45323,-9.04798 13.673492,0.85347 9.06043,-13.86438 -0.56407,-4.36832 2.164932,-12.28235 -4.56458,-12.66267 z m 17.948782,0 c -3.59208,3.25501 -14.378992,-3.8681 -11.07581,10.28322 -2.337362,6.80601 1.87817,19.17531 6.95926,10.52079 -2.30973,-10.31754 5.74914,-11.83516 4.11655,-20.80401 z m 79.87472,0 c -5.92286,0.99431 -14.42813,-1.45446 -11.23085,11.51695 -3.63379,7.30993 4.64309,18.25278 6.75203,8.05333 -1.30828,-8.78586 2.08709,-23.09392 2.25671,-5.88502 -4.63724,9.21549 8.96051,14.68705 6.75257,3.41757 -1.26678,-13.55942 3.48125,-13.93859 2.29081,-0.0952 -2.95476,10.67863 11.46008,6.84699 6.75256,-2.37228 1.3506,-13.77783 -1.79929,-13.91174 -13.57383,-14.63538 z m 23.52981,0 c -16.51365,3.50745 -1.49738,15.82068 0.60307,4.5992 -1.1429,5.09247 -17.77161,18.06731 -1.18856,18.4826 4.59764,1.68802 11.5157,-0.96493 8.42327,-11.28252 0.79396,-5.56651 -0.46458,-12.76257 -7.83778,-11.79928 z m 38.15477,0 c -21.04289,3.55415 2.88893,41.25934 7.85482,13.86634 -9.11662,-0.81346 -8.22116,10.67657 -8.62994,-4.07802 -3.62823,-12.50104 12.17107,9.95164 7.03212,-7.32965 -1.56125,-1.73929 -3.97245,-2.50052 -6.257,-2.45867 z m -495.74957,0.15502 c 6.09108,2.09003 -1.75583,12.93432 0,0 z m 33.69304,0 c 6.10749,2.02221 -0.26843,27.71191 0,12.17653 0,-4.05885 0,-8.11769 0,-12.17653 z m 96.87625,0 c 6.0907,2.09016 -1.75545,12.93503 0,0 z m 117.6842908,0 c 6.0910702,2.09003 -1.75583,12.93432 0,0 z m 230.3218592,0.2584 c 0,7.61933 0,15.2387 0,22.85804 11.11081,3.376 6.11817,-9.35144 7.16598,-16.03844 0.70718,-7.36322 0.25222,-7.31898 -7.16598,-6.8196 z m -247.908899,1.2056 c 3.4363298,12.57374 -4.093091,18.71061 0,0 z m 66.69722,0 c 3.43632,12.57376 -4.09308,18.71061 0,0 z m 35.467087,2.42879 c 3.61726,7.40542 -1.69018,23.26376 -1.08521,6.32002 0.57385,-1.78233 -1.26838,-5.57069 1.08521,-6.32002 z m -223.087158,1.06812 c -2.31443,13.46621 13.14995,-1.24965 0.31904,0 z m 348.72961,7.28639 c 2.26854,8.37102 -6.04912,10.2035 0,0 z m -348.72961,5.18469 c -2.31955,13.4923 13.15546,-1.23393 0.31904,0 z"
       id="path4546"
       inkscape:connector-curvature="0" />
  </g>
</svg>
