<?xml version="1.0" encoding="UTF-8" standalone="no"?>
<!-- Created with Inkscape (http://www.inkscape.org/) -->

<svg
   xmlns:dc="http://purl.org/dc/elements/1.1/"
   xmlns:cc="http://creativecommons.org/ns#"
   xmlns:rdf="http://www.w3.org/1999/02/22-rdf-syntax-ns#"
   xmlns:svg="http://www.w3.org/2000/svg"
   xmlns="http://www.w3.org/2000/svg"
   xmlns:sodipodi="http://sodipodi.sourceforge.net/DTD/sodipodi-0.dtd"
   xmlns:inkscape="http://www.inkscape.org/namespaces/inkscape"
   width="210mm"
   height="297mm"
   viewBox="0 0 210 297"
   version="1.1"
   id="svg2511"
   inkscape:version="0.92.5 (2060ec1f9f, 2020-04-08)"
   sodipodi:docname="menu.svg">
  <defs
     id="defs2505" />
  <sodipodi:namedview
     id="base"
     pagecolor="#ffffff"
     bordercolor="#666666"
     borderopacity="1.0"
     inkscape:pageopacity="0.0"
     inkscape:pageshadow="2"
     inkscape:zoom="0.49497475"
     inkscape:cx="101.35524"
     inkscape:cy="716.79614"
     inkscape:document-units="mm"
     inkscape:current-layer="layer1"
     showgrid="false"
     inkscape:window-width="1920"
     inkscape:window-height="1017"
     inkscape:window-x="-8"
     inkscape:window-y="-8"
     inkscape:window-maximized="1" />
  <metadata
     id="metadata2508">
    <rdf:RDF>
      <cc:Work
         rdf:about="">
        <dc:format>image/svg+xml</dc:format>
        <dc:type
           rdf:resource="http://purl.org/dc/dcmitype/StillImage" />
        <dc:title></dc:title>
      </cc:Work>
    </rdf:RDF>
  </metadata>
  <g
     inkscape:label="Layer 1"
     inkscape:groupmode="layer"
     id="layer1">
    <path
       style="opacity:1;vector-effect:none;fill:#dc7b9a;fill-opacity:1;fill-rule:nonzero;stroke:none;stroke-width:0.25;stroke-linecap:round;stroke-linejoin:round;stroke-miterlimit:4;stroke-dasharray:none;stroke-dashoffset:0;stroke-opacity:1;paint-order:stroke markers fill"
       d="m 8.3071633,132.83461 c -12.275146,2.28307 -6.327275,17.62637 -6.448571,26.12817 -2.843045,12.96895 5.570462,25.20412 19.5864937,21.89997 16.113789,1.28198 32.241964,0.51056 48.363065,0.55207 15.612847,1.59293 31.359269,0.20259 46.992519,0.0578 14.75872,-3.1117 30.75276,4.52219 44.67533,-2.87146 7.61625,-8.35673 0.78554,-20.88928 3.06092,-30.844 2.28965,-13.65303 -12.0633,-15.89664 -22.08889,-13.33782 -13.93807,-0.33731 -27.82994,3.44176 -41.65369,0.18813 -11.464864,-0.92431 -23.117332,2.8669 -34.5129,-0.35389 -11.948286,0.4703 -23.806925,2.24942 -35.638285,-0.5396 C 23.204744,133.24592 15.734,133.52208 8.3071633,132.83461 Z"
       id="path3090"
       inkscape:connector-curvature="0" />
    <path
       style="font-style:normal;font-variant:normal;font-weight:bold;font-stretch:normal;font-size:35.27777481px;line-height:1.25;font-family:IMPACT;-inkscape-font-specification:'IMPACT Bold';text-align:center;writing-mode:lr-tb;direction:ltr;text-anchor:middle;fill:#ffffff;fill-opacity:1;fill-rule:nonzero;stroke:none;stroke-width:0.25;stroke-linecap:round;stroke-linejoin:round;stroke-miterlimit:4;stroke-dasharray:none;stroke-dashoffset:0;stroke-opacity:1;paint-order:stroke markers fill"
       d="m 17.861841,142.9557 c -7.411545,-0.86178 -9.7064817,7.78407 -8.4223217,13.54401 -0.221124,5.72448 -1.037555,14.74295 6.7937507,15.47066 6.748633,1.72751 12.077546,-5.35706 10.045936,-11.41959 -3.395503,-0.85002 -8.561731,-1.13821 -7.039478,4.02444 -0.923768,5.64157 -3.715505,-0.57564 -2.565826,-3.22266 0.719708,-4.1678 -1.786513,-11.19739 1.707231,-13.43171 2.274466,2.86882 -1.296519,9.8825 5.103474,7.78136 6.237795,0.63304 2.971363,-10.39829 -1.11495,-11.96153 -1.383675,-0.79713 -2.967928,-0.77931 -4.507816,-0.78498 z m 19.499068,0 c -7.448456,-0.91791 -9.589904,8.0992 -8.352185,13.80817 0.153994,4.72328 -1.306509,11.28853 3.589937,14.13336 4.83875,2.98587 13.332486,0.3175 12.987792,-6.16453 -0.252336,-6.2004 1.434178,-13.12462 -1.324129,-18.85814 -1.619405,-2.05533 -4.343698,-3.00114 -6.901415,-2.91886 z m 11.110433,0.58549 c 0,9.29608 0,18.59215 0,27.88823 2.113049,0 4.226099,0 6.339148,0 0,-6.13227 0,-12.26454 0,-18.39681 0.89004,6.13227 1.780081,12.26454 2.670121,18.39681 7.693341,2.01733 4.432707,-8.78667 6.274123,-13.22238 0.388161,-2.91259 0.904574,-7.741 0.753872,-2.60407 0,5.27548 0,10.55096 0,15.82645 2.112877,0 4.225753,0 6.33863,0 0,-9.29608 0,-18.59215 0,-27.88823 -3.152262,0 -6.304525,0 -9.456787,0 -0.594222,3.55419 -1.15439,11.3611 -1.770287,12.20846 -1.341721,-3.6363 0.177868,-10.57982 -2.961303,-12.20846 -2.729173,0 -5.458345,0 -8.187517,0 z m 25.287346,0 c 0,9.29608 0,18.59215 0,27.88823 4.191475,0 8.38295,0 12.574425,0 0,-1.86036 0,-3.72071 0,-5.58106 -3.362035,0.58224 -6.397194,0.007 -5.322673,-3.90111 -1.423179,-4.59492 6.432981,0.15215 4.559725,-5.26098 0.96496,-4.29447 -7.042171,-0.2598 -4.653126,-5.8627 -0.08103,-3.85658 6.809447,0.62092 4.933932,-4.69623 1.045102,-4.02124 -3.995247,-2.23975 -6.2964,-2.58615 -1.931961,0 -3.863922,0 -5.795883,0 z m 14.676106,0 c 0,9.29608 0,18.59215 0,27.88823 2.021065,0 4.042129,0 6.063194,0 0,-4.2261 0,-8.4522 0,-12.6783 1.796768,3.9054 1.79396,10.2238 4.672787,12.6783 1.818595,0 3.637195,0 5.455795,0 0,-9.29608 0,-18.59215 0,-27.88823 -2.02107,0 -4.04213,0 -6.063195,0 0,4.1858 0,8.37159 0,12.55738 -1.886686,-3.86763 -2.031624,-10.12988 -4.965792,-12.55738 -1.72093,0 -3.441859,0 -5.162789,0 z m 18.500166,0 c 0,1.86036 0,3.72071 0,5.58106 3.23201,-0.57705 6.35639,0.0106 3.7335,3.94449 -1.14589,6.04176 -5.42323,12.24817 -3.98241,18.36734 4.26104,0.001 8.64752,-0.0102 12.96131,-0.005 0,-1.86035 0,-3.7207 0,-5.58105 -1.80299,0 -3.60598,0 -5.40897,0 1.64749,-6.3962 4.94803,-12.52021 5.4103,-19.11984 1.23849,-3.85108 -2.30327,-3.26363 -4.80285,-3.18733 -2.63696,0 -5.27392,0 -7.91088,0 z m 17.29403,0 c -1.22869,9.29608 -2.45739,18.59215 -3.68608,27.88823 2.50338,0 5.00676,0 7.51014,0 -0.82563,-2.32616 1.59341,-7.79778 3.18769,-3.57283 -1.97162,4.86439 6.83471,4.72686 7.5772,2.0679 -1.51417,-7.53137 -2.32934,-15.23431 -3.57008,-22.83279 -0.30392,-1.84763 0.004,-4.40438 -2.62951,-3.55051 -2.79645,0 -5.5929,0 -8.38936,0 z m 15.88223,0 c 0,9.29608 0,18.59215 0,27.88823 2.41725,0 4.83451,0 7.25176,0 0,-4.19165 0,-8.3833 0,-12.57495 5.48964,1.41551 -0.67669,11.09744 3.70506,12.57495 1.56339,-0.42318 4.93454,0.90329 5.20991,-0.7665 -0.61063,-4.44284 1.98883,-11.14887 -3.05064,-13.54825 3.74061,-1.55305 4.84403,-10.43469 -0.22336,-12.88443 -4.15721,-1.12955 -8.62051,-0.52545 -12.89273,-0.68905 z m -102.715687,4.13412 c 2.417899,4.42832 0.485473,10.28186 1.100499,15.30449 1.154403,3.04253 -2.604724,6.06863 -2.338423,1.30024 0.467575,-5.4141 -0.596945,-11.12745 0.58287,-16.35708 0.140391,-0.23417 0.438128,-0.16233 0.655054,-0.24765 z m 109.967447,0.63717 c 5.07442,-0.84304 0.39831,10.15635 0,3.80267 0,-1.26756 0,-2.53512 0,-3.80267 z m -17.58704,1.46451 c -0.77295,3.23377 3.1452,11.13663 -0.87882,11.08104 -1.53831,-3.48447 0.0552,-7.5782 0.87882,-11.08104 z"
       id="path3062"
       inkscape:connector-curvature="0" />
    <path
       inkscape:connector-curvature="0"
       id="path3100"
       d="m 157.40876,189.90902 c 12.27514,2.28307 6.32727,17.62637 6.44857,26.12816 2.84304,12.96895 -5.57046,25.20412 -19.58649,21.89997 -16.11379,1.28198 -32.24196,0.51056 -48.363066,0.55208 -15.612847,1.59292 -31.359267,0.20258 -46.992517,0.0578 -14.758717,-3.1117 -30.752765,4.52218 -44.6753347,-2.87147 -7.61625,-8.35673 -0.78554,-20.88927 -3.06092,-30.844 -2.28965,-13.65303 12.0632997,-15.89663 22.0888897,-13.33781 13.938073,-0.33733 27.829943,3.44175 41.653695,0.18812 11.464862,-0.92432 23.11733,2.86689 34.512898,-0.35389 11.948285,0.4703 23.806925,2.24942 35.638285,-0.5396 7.43841,-0.46806 14.90915,-0.1919 22.33599,-0.87936 z"
       style="opacity:1;vector-effect:none;fill:#dc7b9a;fill-opacity:1;fill-rule:nonzero;stroke:none;stroke-width:0.25;stroke-linecap:round;stroke-linejoin:round;stroke-miterlimit:4;stroke-dasharray:none;stroke-dashoffset:0;stroke-opacity:1;paint-order:stroke markers fill" />
    <path
       style="font-style:normal;font-variant:normal;font-weight:bold;font-stretch:normal;font-size:35.27777481px;line-height:1.25;font-family:IMPACT;-inkscape-font-specification:'IMPACT Bold';text-align:center;writing-mode:lr-tb;direction:ltr;text-anchor:middle;fill:#ffffff;fill-opacity:1;fill-rule:nonzero;stroke:none;stroke-width:0.94488192;stroke-linecap:round;stroke-linejoin:round;stroke-miterlimit:4;stroke-dasharray:none;stroke-dashoffset:0;stroke-opacity:1;paint-order:stroke markers fill"
       d="M 482.39844 755.25781 C 462.00851 755.2927 445.3849 775.94398 450.58203 797.76172 C 452.6912 819.6716 443.3262 849.36829 466.25977 863.15234 C 494.17528 878.1006 522.99059 848.20237 514.20508 820.01953 C 511.94205 799.51295 522.2117 768.48803 496.89453 758.76758 C 492.00971 756.34081 487.1038 755.24976 482.39844 755.25781 z M 266.73047 755.83203 C 262.17318 755.83568 257.68629 756.632 253.68555 758.2793 C 229.36531 766.87198 237.66448 797.02538 235.82422 816.72852 C 231.83089 839.39457 240.75383 873.28379 270.56445 864.20703 C 281.28457 853.6674 284.70544 868.06412 299.62305 863.70508 L 299.62305 807.12891 L 276.43555 807.12891 C 251.90831 808.2255 286.17597 835.92632 269.34766 847.08594 C 256.26166 835.50751 266.61886 804.97926 263.46094 786.22656 C 263.71711 763.18626 277.50482 786.08313 272.21289 797.10352 L 299.62305 797.10352 C 299.62044 792.63441 299.67964 788.15619 299.2832 783.69922 C 300.17789 765.93833 283.0065 755.81901 266.73047 755.83203 z M 79.160156 757.56445 C 70.871887 757.79204 63.821031 763.20506 57.292969 768.42188 C 44.255405 771.3718 29.644747 785.50337 51.359375 788.98242 C 67.609643 805.65834 54.626621 840.00306 58.802734 863.70508 L 85.103516 863.70508 L 85.103516 758.30078 C 83.050205 757.73487 81.072834 757.51193 79.160156 757.56445 z M 552.07812 757.96094 C 542.60959 758.08233 532.74549 759.34354 524.49219 758.30078 L 524.49219 863.70508 L 551.90039 863.70508 C 551.70574 851.34878 552.26945 838.9664 551.71484 826.65625 C 555.75943 801.97703 564.02738 836.73435 560.21289 846.81836 C 549.53251 866.84883 586.55254 871.47721 585.86523 855.24414 C 583.91628 839.68745 592.54431 812.6384 570.58594 808.69141 C 588.88373 807.21452 589.12842 782.99872 582.36719 770.47461 C 575.77094 759.53536 564.25195 757.80486 552.07812 757.96094 z M 407.00977 758.00195 C 397.01364 758.00791 386.5896 759.27224 377.87695 758.30078 L 377.87695 845.89062 C 370.86176 868.40036 394.42106 863.72162 409.59961 863.90039 C 430.86403 868.75361 446.11573 851.03296 441.47852 830.60938 C 439.50231 811.02023 444.58417 790.70208 438.91016 771.65625 C 432.00834 760.06917 419.86193 757.99429 407.00977 758.00195 z M 130.76172 758.30078 C 119.0906 761.21827 128.83327 785.50007 125.6875 796.84961 C 122.7992 812.00616 132.11636 834.36252 119.43945 844.01562 C 99.218372 866.46462 144.16562 871.78502 151.83594 853.40234 C 154.28231 821.75352 152.54853 789.99786 153.07227 758.30078 L 130.76172 758.30078 z M 167.24805 758.30078 C 158.14515 776.99111 165.93721 813.05212 163.67773 838.18945 C 162.00456 868.90991 211.60287 876.48969 223.75195 850.60938 C 228.57558 820.2778 225.02477 789.00755 226.11914 758.30078 L 198.71094 758.30078 L 198.71094 806.70117 C 196.17284 819.40133 206.06259 843.59143 191.54883 846.19141 C 189.95141 816.91708 191.25779 787.59571 190.83398 758.30078 L 167.24805 758.30078 z M 317.85156 758.30078 C 313.81984 788.80244 309.78758 819.30498 305.75586 849.80664 C 304.3574 857.83632 301.32276 867.30081 313.1875 863.70508 C 323.0501 863.3789 338.32375 867.53331 332.95898 851.47266 C 337.88281 834.38382 349.24274 853.6865 345.13086 863.70508 L 373.18945 863.70508 L 357.5 758.30078 L 317.85156 758.30078 z M 552.96875 776.1875 C 563.66534 775.56069 563.5727 802.59807 551.90039 799.77344 L 551.90039 776.33594 C 552.26787 776.25621 552.6237 776.20772 552.96875 776.1875 z M 483.13867 776.30078 C 484.54524 776.17863 485.89362 778.67864 486.79688 785.38477 L 486.79688 795.63086 C 485.9506 812.17098 488.76069 829.23424 485.33398 845.30078 C 471.28986 845.31412 481.08962 816.17012 478.25781 803.96875 C 474.90976 797.01831 479.24991 776.63849 483.13867 776.30078 z M 405.28711 776.33594 C 407.70121 776.52454 411.06231 776.17158 412.74023 778.5 C 410.81933 799.76933 423.02046 831.68139 405.28711 845.67188 L 405.28711 776.33594 z M 338.58984 788.00586 C 340.57791 790.00856 340.98941 815.54011 342.98242 826.07422 C 322.74566 826.69074 340.55759 798.58185 338.58984 788.00586 z "
       transform="scale(0.26458333)"
       id="path3114" />
    <path
       style="opacity:1;vector-effect:none;fill:#dc7b9a;fill-opacity:1;fill-rule:nonzero;stroke:none;stroke-width:0.25;stroke-linecap:round;stroke-linejoin:round;stroke-miterlimit:4;stroke-dasharray:none;stroke-dashoffset:0;stroke-opacity:1;paint-order:stroke markers fill"
       d="m 8.3071595,297.83333 c -12.27514,-2.28307 -6.32727,-17.62637 -6.44857,-26.12817 -2.84303995,-12.96895 5.57046,-25.20412 19.5864905,-21.89997 16.11379,-1.28198 32.24196,-0.51056 48.363066,-0.55208 15.612847,-1.59292 31.359264,-0.20258 46.992514,-0.0578 14.75872,3.1117 30.75277,-4.52218 44.67534,2.87147 7.61625,8.35673 0.78554,20.88928 3.06092,30.844 2.28965,13.65303 -12.0633,15.89664 -22.08889,13.33781 -13.93808,0.33733 -27.82995,-3.44174 -41.6537,-0.18811 -11.464859,0.92431 -23.117327,-2.8669 -34.512895,0.35388 -11.948285,-0.4703 -23.806925,-2.24942 -35.638285,0.5396 -7.43841,0.46806 -14.90915,0.1919 -22.3359905,0.87937 z"
       id="path3108"
       inkscape:connector-curvature="0" />
    <path
       style="font-style:normal;font-variant:normal;font-weight:bold;font-stretch:normal;font-size:28.21445847px;line-height:1.25;font-family:IMPACT;-inkscape-font-specification:'IMPACT Bold';text-align:center;writing-mode:lr-tb;direction:ltr;text-anchor:middle;fill:#ffffff;fill-opacity:1;fill-rule:nonzero;stroke:none;stroke-width:0.75569767;stroke-linecap:round;stroke-linejoin:round;stroke-miterlimit:4;stroke-dasharray:none;stroke-dashoffset:0;stroke-opacity:1;paint-order:stroke markers fill"
       d="M 63.896484 987.63477 C 58.904981 987.74059 53.817621 989.62857 49.248047 993.88477 C 26.573959 1006.0414 55.233862 1034.5675 61.455078 1010.4902 C 65.610461 991.36972 73.689376 1016.9512 65.296875 1024.3926 C 57.509427 1040.7573 39.458648 1054.7679 41.630859 1074.582 L 65.005859 1074.582 C 76.320106 1074.599 93.744918 1078.3114 87.919922 1060.2109 L 82.65625 1060.2109 C 53.344528 1066.0249 80.360295 1039.591 85.634766 1028.1914 C 98.315739 1009.6286 81.723283 987.25682 63.896484 987.63477 z M 233.74609 987.69922 C 216.20725 987.34262 203.21385 1007.6698 208.53516 1026.0117 C 207.62243 1044.2909 204.76125 1075.2668 230.4707 1076.4258 C 240.81383 1067.1976 247.97689 1075.6993 259.48828 1074.582 L 259.48828 1040.7793 C 268.33443 1021.4926 220.7029 1025.8776 236.17773 1041.623 C 246.82836 1054.5439 227.22625 1070.7129 230.51953 1048.6836 C 232.87704 1037.8755 224.62063 1001.6743 236.74414 1007.832 C 234.08081 1024.1442 247.46564 1021.7281 259.48828 1021.3145 C 262.98659 1009.6721 257.54635 996.7393 246.44531 991.5293 C 242.08284 988.96531 237.79352 987.78151 233.74609 987.69922 z M 561.49219 987.78516 C 534.97421 987.50276 531.06659 1025.9875 555.0957 1037.2715 C 565.74584 1038.6134 574.13179 1068.4117 561.13086 1056.7305 C 567.9238 1036.0425 527.2112 1041.0683 540.81641 1061.6172 C 550.74005 1087.2295 596.36669 1077.998 589.69141 1048.791 C 594.32409 1024.9503 548.09449 1023.9033 564.49023 1003.7852 C 566.09888 1016.1212 575.0516 1017.9187 587.62695 1015.7969 C 591.07891 1001.6063 581.60573 989.23285 567.0957 988.37891 C 565.12844 987.99594 563.26005 987.80398 561.49219 987.78516 z M 406.06445 988.01953 C 391.71213 988.1522 377.46398 999.64609 380.26172 1016.0625 C 382.46764 1034.6541 374.00088 1058.2048 389.90625 1072.4238 C 411.52953 1087.7828 439.45931 1063.5117 431.10742 1039.6445 C 429.14127 1024.8185 436.99601 1006.945 424.10938 995.48438 C 419.13269 990.24581 412.58824 987.95923 406.06445 988.01953 z M 160.91016 988.86719 C 144.70335 989.37154 151.54412 1016.4054 150.55469 1032.7031 C 141.71324 1059.327 165.91553 1089.9711 193.02344 1071.3516 C 208.58841 1048.5507 197.20317 1016.7912 200.70117 990.28125 L 178.78125 990.28125 C 178.78125 1000.8059 178.78125 1011.3308 178.78125 1021.8555 C 177.39793 1034.7067 182.16586 1049.7193 176.10547 1060.791 C 167.87328 1043.4258 174.73647 1013.676 172.48047 991.55273 C 167.70224 989.58991 163.91142 988.77379 160.91016 988.86719 z M 463.00586 990.03125 C 454.90378 989.90073 446.3498 990.97169 439.33398 990.28125 L 439.33398 1058.0176 C 434.93896 1074.2215 447.01309 1077.2319 461.25586 1074.582 C 461.45685 1062.854 460.80485 1051.0892 461.67773 1039.3906 C 474.28824 1038.736 464.12274 1065.386 469.31445 1074.1641 C 493.66803 1083.102 488.72848 1057.8434 488.02148 1042.2266 C 471.21321 1030.3183 494.84907 1020.3258 487.79492 1002.8027 C 483.09443 992.35422 473.42282 990.19906 463.00586 990.03125 z M 343.36523 990.03711 C 335.85778 990.15654 328.19156 990.93471 322.07422 990.28125 C 322.07422 1015.4073 322.07422 1040.5341 322.07422 1065.6602 C 318.40082 1077.2765 329.08351 1074.5382 336.98242 1074.582 C 349.95562 1074.4881 368.27553 1078.9328 371.91602 1061.5332 C 373.72475 1042.8559 373.59896 1023.3995 371.67578 1004.6387 C 367.95058 991.47344 355.87766 989.83806 343.36523 990.03711 z M 120.35938 990.28125 C 120.49127 1010.8147 120.01735 1031.6048 120.75781 1051.9277 C 104.19185 1063.0835 114.50702 1083.8729 133.25586 1073.127 C 152.26291 1053.2348 137.67779 1016.7817 142.28125 990.28125 L 120.35938 990.28125 z M 274.06641 990.28125 C 271.5198 1009.5474 268.97434 1028.8139 266.42773 1048.0801 C 267.28062 1057.2722 256.13638 1075.8777 271.91406 1075.0645 C 288.13975 1081.7127 283.46399 1061.9274 291.66797 1058.9746 C 295.10825 1073.0899 302.42611 1077.4796 318.32617 1074.582 C 314.1433 1046.4821 309.96022 1018.3812 305.77734 990.28125 L 274.06641 990.28125 z M 496.81836 990.28125 C 496.43769 1016.9959 497.59219 1043.9313 496.21875 1070.5605 C 503.5787 1076.817 529.35165 1077.9931 534.83594 1069.9902 C 541.10538 1052.6553 522.10983 1062.2377 518.58398 1053.6816 C 510.58057 1033.6409 537.88946 1045.2314 533.25977 1028.293 C 528.43645 1019.8491 511.52594 1024.777 519.44141 1008.4004 C 531.56571 1009.1573 536.41259 1003.4458 533.37109 990.28125 L 496.81836 990.28125 z M 462.83984 1004.4531 C 466.35231 1004.4626 468.51312 1008.4473 467.96289 1011.8848 C 467.69299 1031.5185 456.44974 1016.2888 461.25586 1004.7051 C 461.80884 1004.531 462.33806 1004.4518 462.83984 1004.4531 z M 343.99609 1004.7051 L 347.75781 1005.2734 C 351.29197 1020.3574 356.90303 1048.727 343.99609 1060.1582 L 343.99609 1004.7051 z M 405.82617 1005.334 C 406.82502 1005.3958 407.95968 1007.2987 409.18555 1011.9434 C 409.48553 1024.784 408.51234 1037.6282 409.60156 1050.4121 C 405.77434 1075.2395 399.01383 1044.4033 402.4043 1033.9727 C 400.42908 1028.3647 402.25887 1005.1132 405.82617 1005.334 z M 290.66797 1014.5898 C 291.91154 1014.6973 293.13907 1038.1849 294.16602 1044.4863 C 280.37217 1048.2287 289.57171 1029.8666 289.42578 1023.7773 C 289.83701 1017.1152 290.25344 1014.554 290.66797 1014.5898 z "
       transform="scale(0.26458333)"
       id="path3131" />
    <path
       inkscape:connector-curvature="0"
       id="path3207"
       d="m 157.40876,119.83182 c 12.27514,-2.28307 6.32727,-17.62637 6.44857,-26.128165 2.84304,-12.96895 -5.57046,-25.20412 -19.58649,-21.89997 -16.11379,-1.28198 -32.24196,-0.51056 -48.363064,-0.55208 -15.612847,-1.59292 -31.359264,-0.20258 -46.992514,-0.0578 -14.75872,3.1117 -30.75277,-4.52218 -44.6753397,2.87147 -7.61625,8.35673 -0.78554,20.88928 -3.06092,30.843995 -2.28965,13.65303 12.0632997,15.89664 22.0888897,13.33781 13.93808,0.33733 27.82995,-3.44174 41.6537,-0.18811 11.464859,0.92431 23.117327,-2.8669 34.512895,0.35388 11.948283,-0.4703 23.806923,-2.24942 35.638283,0.5396 7.43841,0.46806 14.90915,0.1919 22.33599,0.87937 z"
       style="opacity:1;vector-effect:none;fill:#dc7b9a;fill-opacity:1;fill-rule:nonzero;stroke:none;stroke-width:0.25;stroke-linecap:round;stroke-linejoin:round;stroke-miterlimit:4;stroke-dasharray:none;stroke-dashoffset:0;stroke-opacity:1;paint-order:stroke markers fill" />
    <path
       style="font-style:normal;font-variant:normal;font-weight:bold;font-stretch:normal;font-size:35.27777481px;line-height:1.25;font-family:IMPACT;-inkscape-font-specification:'IMPACT Bold';text-align:center;writing-mode:lr-tb;direction:ltr;text-anchor:middle;fill:#ffffff;fill-opacity:1;fill-rule:nonzero;stroke:none;stroke-width:0.94488192;stroke-linecap:round;stroke-linejoin:round;stroke-miterlimit:4;stroke-dasharray:none;stroke-dashoffset:0;stroke-opacity:1;paint-order:stroke markers fill"
       d="M 49.935547 304.52734 C 32.077934 304.34462 13.682633 315.8869 16.591797 336.48438 C 19.028039 359.42501 8.7829743 387.48751 25.050781 406.39062 C 49.948581 430.33718 92.962335 402.1188 80.267578 370.18555 C 63.272158 368.48634 46.3963 368.47039 53.123047 391.83008 C 35.688583 400.67172 46.738675 356.17722 43.828125 342.875 C 37.247539 321.40404 59.344783 318.94215 53.705078 341.50586 C 47.409459 360.54208 70.675237 350.46762 81.068359 352.93164 C 81.031479 343.51069 81.397709 334.0112 79.681641 324.69531 C 75.711001 311.03718 62.966778 304.66069 49.935547 304.52734 z M 121.37891 304.68945 C 106.97677 304.52536 92.863527 312.02017 91.189453 328.53711 C 93.024051 355.89312 78.345288 397.11838 109 413.21875 C 137.19783 424.93411 161.1223 395.41576 153.6582 368.6875 C 153.59346 357.90793 153.82902 347.12329 153.43164 336.34766 C 156.56471 316.23995 138.7608 304.88749 121.37891 304.68945 z M 566.82422 304.92578 C 560.57419 304.83415 554.3951 305.51978 548.8418 306.96875 L 548.8418 405.11523 C 545.78541 419.12228 566.24867 409.60931 574.43555 412.37305 C 578.81061 402.47042 574.89354 383.59095 575.91602 370.89062 C 588.79831 355.2303 583.72811 402.47095 584.64453 412.37305 C 606.90493 417.39714 616.0751 406.21265 610.22266 383.0293 C 618.6719 362.23845 582.48179 359.07901 606.80664 351.08203 C 622.31322 320.31836 593.90769 305.32286 566.82422 304.92578 z M 243.48828 304.95117 C 227.01971 305.07094 224.1241 335.71505 247.60352 328.0625 L 247.60352 406.92969 C 246.90183 418.58201 266.91662 409.51947 275.01367 412.37305 C 274.61937 385.56788 275.81148 358.62053 274.40039 331.90625 C 284.97855 326.1468 297.38687 326.56618 291.28906 306.96875 L 251.33984 306.96875 C 248.47047 305.53929 245.84093 304.93406 243.48828 304.95117 z M 501.49805 305.50977 C 483.39436 305.64483 485.80416 329.18222 483.48047 347.32031 C 487.18611 365.56305 463.29571 407.12173 483.94531 412.37305 C 510.43375 427.32399 496.69353 385.1918 514.77539 395.55859 C 507.93324 419.14795 530.23377 411.16674 544.1543 412.37305 L 528.46289 306.96875 L 510.58789 306.96875 C 507.09077 305.94884 504.08429 305.49047 501.49805 305.50977 z M 418.02148 306.12305 C 397.11249 306.0122 412.50418 342.2423 407.80469 358.375 C 397.24431 391.45577 425.06795 431.8299 460.22852 408.83594 C 480.95329 380.87322 465.90778 340.1492 470.52148 306.96875 L 443.11133 306.96875 C 443.2421 332.2022 442.84971 357.46709 443.30469 382.67383 C 443.4502 407.03436 430.35833 387.02163 435.22852 372.92383 C 427.49042 354.7858 450.5583 306.43963 424.1543 306.96875 C 421.82662 306.40303 419.79343 306.13244 418.02148 306.12305 z M 178.96484 306.65039 C 174.09571 306.5673 168.48493 307.50488 163.94531 306.96875 L 163.94531 397.85742 C 159.25595 413.8144 170.55869 413.77918 183.23242 412.37305 C 191.53418 409.54086 184.57447 391.44673 186.86133 382.59961 C 186.16847 365.54493 187.2339 360.55645 192.20898 382.42383 C 193.80997 404.9802 202.57468 417.93088 225.14258 412.37305 L 225.14258 306.96875 L 202.22656 306.96875 L 202.22656 354.42969 C 198.22266 342.06168 194.21875 329.69418 190.21484 317.32617 C 190.25949 308.55112 185.22516 306.75722 178.96484 306.65039 z M 351.09961 306.65039 C 346.23047 306.5673 340.61969 307.50488 336.08008 306.96875 L 336.08008 397.85742 C 331.39071 413.8144 342.69541 413.77918 355.36914 412.37305 C 363.6709 409.54086 356.71119 391.44673 358.99805 382.59961 C 358.30519 365.54493 359.36866 360.55645 364.34375 382.42383 C 365.94474 404.9802 374.71139 417.93088 397.2793 412.37305 L 397.2793 306.96875 L 374.36133 306.96875 L 374.36133 354.42969 C 370.35742 342.06168 366.35352 329.69418 362.34961 317.32617 C 362.39425 308.55112 357.35993 306.75722 351.09961 306.65039 z M 297.53906 306.96875 L 297.53906 406.92969 C 296.83737 418.58201 316.85022 409.51947 324.94727 412.37305 L 324.94727 306.96875 L 297.53906 306.96875 z M 578.03516 324.75195 C 583.39726 324.77797 585.04693 332.49867 585.01953 336.79688 C 578.59214 361.97259 573.73805 336.99932 576.25 325.00195 C 576.88642 324.82763 577.48046 324.74926 578.03516 324.75195 z M 121.56641 326.20898 C 122.81816 326.16641 124.36375 328.42855 126.25 334.05273 C 126.41603 349.92804 125.91584 365.83205 126.47461 381.68164 C 126.08743 409.18727 111.99974 383.99075 117.59766 369.17969 C 116.26868 362.00457 116.65567 326.37601 121.56641 326.20898 z M 509.62695 337.92383 C 511.451 337.89622 512.02809 364.3547 513.94531 374.74219 C 499.80712 377.12527 505.05468 359.8987 506.75781 352.67188 C 508.00832 342.00041 508.9132 337.93463 509.62695 337.92383 z "
       transform="scale(0.26458333)"
       id="path3213" />
  </g>
</svg>
