<?xml version="1.0" encoding="UTF-8" standalone="no"?>
<!-- Created with Inkscape (http://www.inkscape.org/) -->

<svg
   xmlns:dc="http://purl.org/dc/elements/1.1/"
   xmlns:cc="http://creativecommons.org/ns#"
   xmlns:rdf="http://www.w3.org/1999/02/22-rdf-syntax-ns#"
   xmlns:svg="http://www.w3.org/2000/svg"
   xmlns="http://www.w3.org/2000/svg"
   xmlns:sodipodi="http://sodipodi.sourceforge.net/DTD/sodipodi-0.dtd"
   xmlns:inkscape="http://www.inkscape.org/namespaces/inkscape"
   width="210mm"
   height="297mm"
   viewBox="0 0 210 297"
   version="1.1"
   id="svg843"
   inkscape:version="0.92.5 (2060ec1f9f, 2020-04-08)"
   sodipodi:docname="skirt.svg">
  <defs
     id="defs837" />
  <sodipodi:namedview
     id="base"
     pagecolor="#ffffff"
     bordercolor="#666666"
     borderopacity="1.0"
     inkscape:pageopacity="0.0"
     inkscape:pageshadow="2"
     inkscape:zoom="0.35"
     inkscape:cx="-87.142857"
     inkscape:cy="560"
     inkscape:document-units="mm"
     inkscape:current-layer="layer1"
     showgrid="false"
     inkscape:window-width="1920"
     inkscape:window-height="1017"
     inkscape:window-x="-8"
     inkscape:window-y="-8"
     inkscape:window-maximized="1" />
  <metadata
     id="metadata840">
    <rdf:RDF>
      <cc:Work
         rdf:about="">
        <dc:format>image/svg+xml</dc:format>
        <dc:type
           rdf:resource="http://purl.org/dc/dcmitype/StillImage" />
        <dc:title></dc:title>
      </cc:Work>
    </rdf:RDF>
  </metadata>
  <g
     inkscape:label="Layer 1"
     inkscape:groupmode="layer"
     id="layer1">
    <path
       style="opacity:1;fill:#333333;fill-opacity:1;fill-rule:nonzero;stroke:none;stroke-width:3;stroke-linecap:butt;stroke-linejoin:miter;stroke-miterlimit:4;stroke-dasharray:none;stroke-dashoffset:0;stroke-opacity:1;paint-order:stroke markers fill"
       d="m -19.260414,224.36543 h 5.61265 c 0,0 -1.29605,7.01819 0,10.28988 1.8686,4.71699 5.3523599,10.93321 10.4235085,11.09169 5.008222,0.15651 8.968031,-5.69134 10.958053,-10.28988 1.415309,-3.27049 0,-11.09169 0,-11.09169 h 5.3453875 c 0,0 -4.9853485,16.35962 0,21.51521 1.301261,1.34569 5.612662,0.1885 5.612662,0.1885 -0.286411,16.6788 0.92842,32.92867 5.612659,48.18728 -18.2188805,3.52223 -36.43775,3.95609 -54.65663,0 4.969059,-15.27993 7.74626,-31.10783 5.61266,-48.16343 0,0 3.98499,1.15161 5.21176,-0.0787 5.15853,-5.17357 0.26729,-21.64882 0.26729,-21.64882 z"
       id="path826"
       inkscape:connector-curvature="0"
       sodipodi:nodetypes="ccsssccsccccsc" />
  </g>
</svg>
