<?xml version="1.0" encoding="UTF-8" standalone="no"?>
<!-- Created with Inkscape (http://www.inkscape.org/) -->

<svg
   xmlns:dc="http://purl.org/dc/elements/1.1/"
   xmlns:cc="http://creativecommons.org/ns#"
   xmlns:rdf="http://www.w3.org/1999/02/22-rdf-syntax-ns#"
   xmlns:svg="http://www.w3.org/2000/svg"
   xmlns="http://www.w3.org/2000/svg"
   xmlns:sodipodi="http://sodipodi.sourceforge.net/DTD/sodipodi-0.dtd"
   xmlns:inkscape="http://www.inkscape.org/namespaces/inkscape"
   width="210mm"
   height="297mm"
   viewBox="0 0 210 297"
   version="1.1"
   id="svg8"
   inkscape:version="0.92.5 (2060ec1f9f, 2020-04-08)"
   sodipodi:docname="sp.svg">
  <defs
     id="defs2" />
  <sodipodi:namedview
     id="base"
     pagecolor="#ffffff"
     bordercolor="#666666"
     borderopacity="1.0"
     inkscape:pageopacity="0.0"
     inkscape:pageshadow="2"
     inkscape:zoom="1.4"
     inkscape:cx="37.223008"
     inkscape:cy="3110.1101"
     inkscape:document-units="mm"
     inkscape:current-layer="layer1"
     showgrid="false"
     inkscape:window-width="1920"
     inkscape:window-height="1017"
     inkscape:window-x="-8"
     inkscape:window-y="-8"
     inkscape:window-maximized="1"
     inkscape:snap-global="false" />
  <metadata
     id="metadata5">
    <rdf:RDF>
      <cc:Work
         rdf:about="">
        <dc:format>image/svg+xml</dc:format>
        <dc:type
           rdf:resource="http://purl.org/dc/dcmitype/StillImage" />
        <dc:title></dc:title>
      </cc:Work>
    </rdf:RDF>
  </metadata>
  <g
     inkscape:label="Layer 1"
     inkscape:groupmode="layer"
     id="layer1">
    <path
       style="opacity:1;fill:#eaeaab;fill-opacity:1;fill-rule:nonzero;stroke:none;stroke-width:2.69966269;stroke-linecap:butt;stroke-linejoin:miter;stroke-miterlimit:4;stroke-dasharray:none;stroke-dashoffset:0;stroke-opacity:1;paint-order:stroke markers fill"
       d="m 104.37044,-2060.2226 c -53.852183,0.5208 -107.7186618,0.3696 -161.559712,1.589 -3.837814,-0.3717 -7.210428,1.3263 -10.735207,2.2684 -30.791879,1.0763 -61.733361,0.2707 -92.585101,0.5292 -6.54948,3e-4 -13.09896,6e-4 -19.64844,9e-4 -0.24817,-2.9958 -2.90022,-4.9879 -5.79381,-3.8839 -19.21438,1.1398 -38.74082,0.9756 -57.87781,2.3092 -1.36696,4.4073 -0.34458,9.8394 -0.93356,14.6554 -0.85017,27.2962 -2.22785,54.6158 -2.93667,81.89 2.33463,4.3435 4.1996,8.7861 3.31491,13.8139 -0.55867,29.5521 -0.0796,59.1847 -1.41899,88.6792 -0.21824,2.5653 -4.07859,4.5504 -2.37723,7.3409 1.83505,2.4244 0.36177,6.5808 1.06166,9.7196 0.30166,5.3838 4.15838,9.9978 2.40127,15.521 -0.6677,12.73 -2.67305,25.4697 -2.48524,38.1936 0.98911,10.0829 1.91843,20.1854 2.85183,30.2656 2.74071,2.4234 7.28798,0.8217 10.70002,1.4573 99.80643,0.8391 199.620282,0.3373 299.429725,0.4958 96.785715,0 193.571425,0 290.357145,0 2.62546,-1.6552 0.68178,-5.9062 1.46592,-8.635 0.96013,-28.4184 2.60315,-56.887 3.29831,-85.267 -1.07798,-2.4136 -3.62521,-5.2149 -4.00251,-7.4833 2.3361,-3.3102 0.71399,-8.0759 1.28731,-11.8945 0.0665,-37.7207 1.3651,-75.4488 0.76068,-113.1641 -2.2935,-10.9894 -1.1523,-22.3836 -1.50328,-33.5937 -0.20999,-13.9491 0.39708,-28.0725 -0.30577,-41.911 -4.52855,-1.5445 -10.29575,-0.201 -15.28638,-0.6518 -33.6589,-0.2109 -67.64624,0.4563 -101.1063,-0.4297 -4.75314,-0.059 -8.54438,-3.9339 -13.48623,-2.5939 -40.96218,0.2596 -81.92436,0.5193 -122.88654,0.7789 z"
       id="path970"
       inkscape:connector-curvature="0"
       transform="scale(0.26458333)" />
    <path
       sodipodi:nodetypes="cccccccccccccccccccccccccccccccccccccccccccccc"
       inkscape:connector-curvature="0"
       id="path937"
       d="m 95.613616,-545.50881 v 17.85924 l -0.566965,0.75597 0.949642,10.29981 -0.382677,53.20038 -1.697308,-0.0805 -1.701548,0.86429 -26.761014,-0.20415 0.479219,-0.90694 -109.344395,-0.71215 -11.71163,0.54588 -0.14986,0.58174 -10.439327,-0.0882 v -21.45033 l -0.283483,-2.45687 -0.462589,0.66077 0.434051,-31.93997 0.312021,-26.929 H 63.792068 Z m -1.346171,1.34461 H 63.461339 l -1.984375,-0.8977 -77.918515,0.55583 -1.417315,0.86393 -30.053905,-0.10221 -0.281369,-1.00381 -16.171936,0.58396 -0.941334,25.20781 0.842354,1.89106 -0.109584,25.6082 -0.82165,0.65238 -0.16794,1.23412 0.399606,-0.46984 -0.0519,3.25958 0.850447,2.12612 -0.850447,10.86683 0.850447,9.04888 76.359797,-0.83522 82.273724,0.83522 1.005345,-24.43303 -1.3877,-2.33981 0.608552,0.13507 0.340768,-33.15441 -0.566965,-1.32292 z"
       style="opacity:1;fill:#000000;fill-opacity:1;fill-rule:nonzero;stroke:none;stroke-width:1;stroke-linecap:butt;stroke-linejoin:miter;stroke-miterlimit:4;stroke-dasharray:none;stroke-dashoffset:0;stroke-opacity:1;paint-order:stroke markers fill" />
    <path
       transform="translate(-94.872024,-41.482657)"
       sodipodi:type="inkscape:offset"
       inkscape:radius="-1.3465403"
       inkscape:original="M -61.798828 -541.54102 L -61.798828 -468.02344 L -17.576172 -468.02344 L -17.576172 -541.54102 L -61.798828 -541.54102 z "
       style="opacity:1;fill:#6c5353;fill-opacity:1;fill-rule:nonzero;stroke:none;stroke-width:1;stroke-linecap:butt;stroke-linejoin:miter;stroke-miterlimit:4;stroke-dasharray:none;stroke-dashoffset:0;stroke-opacity:1;paint-order:stroke markers fill"
       id="rect865-6"
       d="m -60.453125,-540.19531 v 70.82617 h 41.53125 v -70.82617 z" />
    <g
       id="g968"
       transform="translate(0.94494048,0.56696442)">
      <path
         transform="scale(0.26458333)"
         inkscape:connector-curvature="0"
         id="path889"
         d="m -188.10204,-2045.6519 c -5.95256,-0.8222 -11.23532,3.2984 -16.93778,2.7455 -8.09878,0.4222 -16.45368,-0.5454 -24.38476,0.5316 -1.00268,18.8437 0.5251,38.0005 -0.98493,56.8694 -1.89528,9.8596 -0.56073,20.0925 -0.88688,30.0891 0.48236,31.7858 0.43138,63.5887 1.10172,95.3657 -0.67799,2.191 2.80665,3.1518 0.50223,4.926 -2.32432,3.517 -4.57411,7.1416 -3.32432,11.5363 1.2846,23.2596 2.29097,46.6931 3.58423,69.8575 4.53371,1.532 10.29523,0.1767 15.28693,0.6153 47.4921,-0.111 94.98421,-0.221 142.476318,-0.3308 2.909828,-2.6725 2.000264,-8.0979 3.3471,-11.877 2.173993,-9.2783 -0.663029,-18.8274 -0.788393,-28.2278 -0.09004,-6.443 -1.894879,-13.1461 -0.910457,-19.426 3.004964,-5.4007 3.099064,-11.5254 2.677921,-17.5102 0.868436,-1.5648 1.540207,-3.6975 -0.05719,-5.3502 -2.946957,-1.7875 -2.9254,-4.549 -2.590685,-7.8585 0.219414,-30 -0.468236,-60.1152 0.431085,-90.0418 0.115115,-4.2218 3.865836,-7.4653 2.398779,-11.8862 -1.225864,-25.269 -2.014229,-50.5723 -3.665521,-75.8133 -2.477308,-2.3743 -6.876493,-0.6415 -10.080929,-1.3772 -35.724668,-1.138 -71.454978,-2.3324 -107.194468,-2.8374 z"
         style="opacity:1;fill:#5c3636;fill-opacity:1;fill-rule:nonzero;stroke:none;stroke-width:2.69966269;stroke-linecap:butt;stroke-linejoin:miter;stroke-miterlimit:4;stroke-dasharray:none;stroke-dashoffset:0;stroke-opacity:1;paint-order:stroke markers fill" />
      <path
         style="opacity:1;fill:#000000;fill-opacity:1;fill-rule:nonzero;stroke:none;stroke-width:1;stroke-linecap:butt;stroke-linejoin:miter;stroke-miterlimit:4;stroke-dasharray:none;stroke-dashoffset:0;stroke-opacity:1;paint-order:stroke markers fill"
         d="m -43.561757,-520.37348 4.724702,1.03943 0.377977,3.449 2.949362,2.37049 -1.420023,8.54712 0.95238,6.14548 4.662101,13.51718 -1.6585,12.14777 -0.565898,0.3512 2.559744,1.05436 0.03272,1.45679 -6.575346,-0.28389 -0.272159,-0.98527 0.07256,-0.60077 -0.505099,-0.50363 2.039873,-12.20296 -5.772027,-7.19591 -1.586747,6.96587 -4.123537,11.47842 0.785875,1.16992 0.02041,1.65242 -2.728442,0.67138 -3.702825,-0.54051 0.568948,-2.35542 -0.366877,-0.36959 3.247418,-11.55576 -1.183612,-12.08271 -0.149179,-11.29618 2.178489,-7.49912 4.209277,-1.89928 z"
         id="rect972"
         inkscape:connector-curvature="0"
         sodipodi:nodetypes="ccccccccccccccccccccccccccccccc" />
      <path
         transform="scale(0.26458333)"
         sodipodi:nodetypes="ccccccccccccccccccccccccccccccccccccccccc"
         inkscape:connector-curvature="0"
         id="rect852"
         d="m -233.57227,-2046.7656 v 52.4995 l 2.14286,2.8572 -3.5892,38.9284 1.44634,183.5723 6.41502,-0.3042 6.43105,3.2666 12.83869,-0.7716 -1.81122,-3.4278 58.98444,-2.6916 44.26443,2.0632 0.5664,2.1987 39.455726,-0.3333 v -63.5721 l 1.071429,-9.2858 1.748368,2.4974 -1.640507,-120.718 -1.17929,-86.7789 H -201.60715 Z m 5.08789,5.082 h 28.12723 l 7.5,-3.3929 121.341525,3.3929 3.557798,80.2736 -3.183701,7.1473 0.414177,96.7869 3.105449,2.4657 0.634732,4.6644 -1.51032,-1.7758 0.196151,12.3197 -3.214286,8.0357 3.214286,41.0715 -3.214286,16.7005 H -228.48438 l -3.79973,-74.8453 5.24485,-8.8434 -2.30004,0.5105 -1.28794,-125.308 2.14286,-5 z"
         style="opacity:1;fill:#000000;fill-opacity:1;fill-rule:nonzero;stroke:none;stroke-width:3.77952766;stroke-linecap:butt;stroke-linejoin:miter;stroke-miterlimit:4;stroke-dasharray:none;stroke-dashoffset:0;stroke-opacity:1;paint-order:stroke markers fill" />
      <g
         transform="matrix(0.71274894,0.02670289,-0.02670289,0.71274894,-25.713816,-149.80723)"
         id="g935"
         inkscape:transform-center-x="-2.7296389"
         inkscape:transform-center-y="-4.5471937">
        <g
           id="g863"
           transform="translate(2.0788695,2.8348213)">
          <path
             style="opacity:1;fill:#000000;fill-opacity:1;fill-rule:nonzero;stroke:none;stroke-width:3.77952766;stroke-linecap:butt;stroke-linejoin:miter;stroke-miterlimit:4;stroke-dasharray:none;stroke-dashoffset:0;stroke-opacity:1;paint-order:stroke markers fill"
             d="m -159.48438,-1990.9121 -13.80468,13.5781 -1.32813,18.8731 6.30274,8.1562 11.86328,7.0059 6.25976,13.9492 26.31836,2.9668 6.73828,-4.9473 -0.6875,-13.1074 -0.0703,-1.7559 2.05274,0.1582 1.83203,-1.33 -1.00196,-3.4121 1.79688,-7.1973 -3.62107,-4.1499 -1.51779,-0.3682 0.25299,-1.3971 -2.88159,-2.9573 -0.62653,-7.5288 -0.79546,-2.9307 -11.26368,-11.5332 z"
             transform="matrix(0.26458333,0,0,0.26458333,-2.0788695,-2.8348213)"
             id="path815"
             inkscape:connector-curvature="0"
             sodipodi:nodetypes="cccccccccccccccccccccc" />
          <path
             style="opacity:1;fill:#9f6b48;fill-opacity:1;fill-rule:nonzero;stroke:none;stroke-width:3.77952766;stroke-linecap:butt;stroke-linejoin:miter;stroke-miterlimit:4;stroke-dasharray:none;stroke-dashoffset:0;stroke-opacity:1;paint-order:stroke markers fill"
             d="m -148.57227,-1989.2617 c -12.90738,0 -23.29101,10.3836 -23.29101,23.291 0,8.099 3.73898,13.1601 9.9375,16.2832 5.23261,2.5789 8.04957,5.9149 9.30078,8.9844 1.25478,3.0782 1.36498,5.1811 1.80859,6.0019 0.44362,0.8208 1.05,1.6948 5.43946,2.709 4.2816,0.9893 12.01637,1.6348 24.03711,1.668 0.12958,-0.6165 0.31617,-2.0687 0.19922,-4.6289 -0.14952,-3.2731 -0.57497,-7.8213 -0.91211,-13.5352 h 5.4082 v -9.0918 l -2.18218,-3.1233 -1.68932,0.031 0.51843,-1.7067 -2.72896,-3.9059 c 0,-3.68 0.66467,-6.5547 -1.06063,-9.423 -4.82689,-8.0246 -16.12374,-13.5535 -24.78508,-13.5535 z"
             transform="matrix(0.26458333,0,0,0.26458333,-2.0788695,-2.8348213)"
             id="path832"
             inkscape:connector-curvature="0"
             sodipodi:nodetypes="sscccccccccccccss" />
          <g
             transform="translate(-1.6036172,0.16704346)"
             id="g846">
            <path
               style="opacity:1;fill:#000000;fill-opacity:1;fill-rule:nonzero;stroke:none;stroke-width:0.5208208;stroke-linecap:butt;stroke-linejoin:miter;stroke-miterlimit:4;stroke-dasharray:none;stroke-dashoffset:0;stroke-opacity:1;paint-order:stroke markers fill"
               d="m -38.076627,-521.9217 3.064772,0.10233 0.536018,0.34556 -0.01874,0.30464 -0.863514,0.53986 h -1.095727 l -1.596676,-0.49372 z"
               id="path826"
               inkscape:connector-curvature="0"
               sodipodi:nodetypes="cccccccc" />
            <path
               style="opacity:1;fill:#000000;fill-opacity:1;fill-rule:nonzero;stroke:none;stroke-width:0.76577961;stroke-linecap:butt;stroke-linejoin:miter;stroke-miterlimit:4;stroke-dasharray:none;stroke-dashoffset:0;stroke-opacity:1;paint-order:stroke markers fill"
               d="m -34.062751,-522.22548 -0.705526,-1.20242 -2.688807,-0.14071 -2.453481,0.94832 -0.95897,1.06003 0.265001,0.256 0.862153,-0.73122 0.249521,-0.14993 -0.190716,0.18965 -0.349551,0.61976 0.146115,0.29607 0.354376,-0.27525 1.601295,-0.42933 2.997521,0.27073 0.237903,0.3618 0.394971,0.0867 0.292463,-0.29375 z"
               id="path828"
               inkscape:connector-curvature="0"
               sodipodi:nodetypes="cccccccccccccccccc" />
          </g>
          <path
             inkscape:connector-curvature="0"
             id="path830"
             d="m -34.043456,-516.66867 h -2.00452 l -1.253106,0.72348 h 3.391262 z"
             style="opacity:1;fill:#000000;fill-opacity:1;fill-rule:nonzero;stroke:none;stroke-width:1;stroke-linecap:butt;stroke-linejoin:miter;stroke-miterlimit:4;stroke-dasharray:none;stroke-dashoffset:0;stroke-opacity:1;paint-order:stroke markers fill" />
          <path
             sodipodi:nodetypes="ccccccccccccccccccccccccccccccccccccccccccccccc"
             inkscape:connector-curvature="0"
             id="path848"
             d="m -37.325149,-527.08259 -0.09449,2.07888 -1.889882,1.6064 -0.236236,-1.51191 -1.559149,1.93712 -0.944941,0.0945 -0.425223,1.4174 -0.708707,-1.51191 -1.464657,1.37017 0.188989,1.84264 1.228421,0.66145 0.897694,-0.33072 0.992188,1.32291 v 1.03944 l -0.377976,1.4174 -0.519719,-0.99218 -0.425222,2.74031 -0.755952,-0.85042 0.04725,-1.03944 -1.984375,-1.22844 v -0.6142 l -2.504093,-1.18118 -0.850445,0.75597 -0.330729,-3.11833 -1.13393,0.47249 0.549769,-4.86121 -0.191301,-0.0976 -0.614839,0.60442 0.114631,-1.20189 0.992187,-0.86929 -0.448847,-2.19699 0.897694,-0.33071 -0.141742,0.75595 0.425225,0.4016 0.812894,-2.35364 1.360467,-0.22133 -0.04724,0.54334 4.748327,-2.64583 1.937128,0.33073 -1.228423,0.28347 0.04725,0.56698 4.015997,0.75594 -0.236233,0.8977 2.83482,1.7009 -1.41741,1.70088 -1.13393,-1.08667 z"
             style="opacity:1;fill:#000000;fill-opacity:1;fill-rule:nonzero;stroke:none;stroke-width:1;stroke-linecap:butt;stroke-linejoin:miter;stroke-miterlimit:4;stroke-dasharray:none;stroke-dashoffset:0;stroke-opacity:1;paint-order:stroke markers fill" />
        </g>
        <path
           style="opacity:1;fill:#000000;fill-opacity:1;fill-rule:nonzero;stroke:none;stroke-width:1;stroke-linecap:butt;stroke-linejoin:miter;stroke-miterlimit:4;stroke-dasharray:none;stroke-dashoffset:0;stroke-opacity:1;paint-order:stroke markers fill"
           d="m -32.175222,-515.50707 -0.04364,0.36199 -1.210884,0.57887 -0.970587,-0.13766 -1.460156,3.0947 1.342038,-3.56717 0.949442,0.19365 0.549246,-0.5362 -0.271671,-0.41341 0.529021,-0.52745 -0.0637,0.60246 z"
           id="path892"
           inkscape:connector-curvature="0"
           sodipodi:nodetypes="cccccccccccc" />
        <path
           sodipodi:nodetypes="ccccc"
           inkscape:connector-curvature="0"
           id="path911"
           d="m -35.996333,-517.0153 -0.136719,0.0361 -0.924864,1.71648 1.092815,-1.58902 z"
           style="opacity:1;fill:#000000;fill-opacity:1;fill-rule:nonzero;stroke:none;stroke-width:1;stroke-linecap:butt;stroke-linejoin:miter;stroke-miterlimit:4;stroke-dasharray:none;stroke-dashoffset:0;stroke-opacity:1;paint-order:stroke markers fill" />
        <path
           style="opacity:1;fill:#000000;fill-opacity:1;fill-rule:nonzero;stroke:none;stroke-width:1;stroke-linecap:butt;stroke-linejoin:miter;stroke-miterlimit:4;stroke-dasharray:none;stroke-dashoffset:0;stroke-opacity:1;paint-order:stroke markers fill"
           d="m -34.361403,-520.29668 0.08243,-0.057 0.660236,-1.14045 -0.753018,1.07981 z"
           id="path917"
           inkscape:connector-curvature="0"
           sodipodi:nodetypes="ccccc" />
      </g>
    </g>
    <rect
       style="opacity:1;fill:#e5e5d1;fill-opacity:1;fill-rule:nonzero;stroke:none;stroke-width:1;stroke-linecap:butt;stroke-linejoin:miter;stroke-miterlimit:4;stroke-dasharray:none;stroke-dashoffset:0;stroke-opacity:1;paint-order:stroke markers fill"
       id="rect850-3"
       width="161.20685"
       height="80.886909"
       x="132.95312"
       y="-657.38989" />
  </g>
</svg>
