<?xml version="1.0" encoding="UTF-8" standalone="no"?>
<!-- Created with Inkscape (http://www.inkscape.org/) -->

<svg
   xmlns:dc="http://purl.org/dc/elements/1.1/"
   xmlns:cc="http://creativecommons.org/ns#"
   xmlns:rdf="http://www.w3.org/1999/02/22-rdf-syntax-ns#"
   xmlns:svg="http://www.w3.org/2000/svg"
   xmlns="http://www.w3.org/2000/svg"
   xmlns:sodipodi="http://sodipodi.sourceforge.net/DTD/sodipodi-0.dtd"
   xmlns:inkscape="http://www.inkscape.org/namespaces/inkscape"
   width="254.14206mm"
   height="123.33916mm"
   viewBox="0 0 254.14206 123.33916"
   version="1.1"
   id="svg1853"
   inkscape:version="0.92.5 (2060ec1f9f, 2020-04-08)"
   sodipodi:docname="title screen.svg">
  <defs
     id="defs1847" />
  <sodipodi:namedview
     id="base"
     pagecolor="#ffffff"
     bordercolor="#666666"
     borderopacity="1.0"
     inkscape:pageopacity="0.0"
     inkscape:pageshadow="2"
     inkscape:zoom="1.979899"
     inkscape:cx="388.61553"
     inkscape:cy="50.439398"
     inkscape:document-units="mm"
     inkscape:current-layer="layer1"
     showgrid="false"
     inkscape:window-width="1920"
     inkscape:window-height="1017"
     inkscape:window-x="-8"
     inkscape:window-y="-8"
     inkscape:window-maximized="1" />
  <metadata
     id="metadata1850">
    <rdf:RDF>
      <cc:Work
         rdf:about="">
        <dc:format>image/svg+xml</dc:format>
        <dc:type
           rdf:resource="http://purl.org/dc/dcmitype/StillImage" />
        <dc:title></dc:title>
      </cc:Work>
    </rdf:RDF>
  </metadata>
  <g
     inkscape:label="Layer 1"
     inkscape:groupmode="layer"
     id="layer1"
     transform="translate(114.14084,203.10746)">
    <path
       style="font-style:normal;font-variant:normal;font-weight:bold;font-stretch:normal;font-size:35.27777481px;line-height:1.25;font-family:IMPACT;-inkscape-font-specification:'IMPACT Bold';text-align:center;writing-mode:lr-tb;direction:ltr;text-anchor:middle;fill:#dc7b9a;fill-opacity:1;fill-rule:nonzero;stroke:none;stroke-width:0.25;stroke-linecap:round;stroke-linejoin:round;stroke-miterlimit:4;stroke-dasharray:none;stroke-dashoffset:0;stroke-opacity:1;paint-order:stroke markers fill"
       d="m 68.862979,-202.93696 c -13.754891,0.58112 -6.563426,16.87652 1.640729,20.04606 -0.763691,10.4874 -2.794807,-7.94754 -9.288841,-0.71875 -1.085024,20.35911 29.431937,3.24218 11.187949,-7.27408 -7.518943,-3.28971 -2.973692,-10.45657 -1.334471,-3.02743 10.623375,3.06787 5.932045,-10.52509 -2.205366,-9.0258 z m -121.232907,0.58549 v 27.88822 c 6.608651,-0.35285 19.006425,2.56044 16.880622,-8.23531 -1.091985,-7.51192 -4.634973,-5.23918 -0.516765,-11.71179 0.974164,-10.29193 -9.964637,-7.53366 -16.363857,-7.94112 z m 21.5315,0 c -1.228693,9.29607 -2.457386,18.59215 -3.68608,27.88822 7.507449,2.68067 6.520675,-3.89455 10.541993,-5.01261 -3.212743,6.3432 9.996824,7.43122 7.288558,1.67054 l -3.654155,-24.54615 z m 12.712403,0 c -2.829835,7.80935 6.848001,3.11103 4.289144,10.64941 v 17.23881 c 7.1630856,1.92991 8.3021269,-2.16422 7.25227,-8.44725 1.0650273,-4.1181 -2.1761309,-12.54238 1.6894506,-13.85992 6.3041719,-0.26466 1.4910593,-8.89326 -4.1410556,-5.58105 z m 18.15599733,0 -3.68659653,27.88822 c 7.5076864,2.68048 6.5209038,-3.89425 10.5419921,-5.01261 -3.2127211,6.34319 9.9967691,7.43123 7.2886181,1.67053 l -3.653698,-24.54614 z m 15.88171767,0 v 27.88822 c 4.256869,-1.03828 13.612481,3.02218 11.661819,-4.22363 -4.337288,-0.68253 -5.320968,-4.71868 -4.410065,-10.6494 -1.291397,-3.89173 2.833192,-13.19944 -2.534176,-13.01519 z m 13.435872,0 v 27.88822 c 4.256868,-1.03828 13.612481,3.02218 11.66182,-4.22363 -4.337288,-0.68253 -5.32097,-4.71868 -4.410067,-10.6494 -1.291397,-3.89173 2.833192,-13.19944 -2.534177,-13.01519 z m 16.364376,0 c -1.228866,9.29607 -2.457731,18.59215 -3.686596,27.88822 7.507687,2.68048 6.520905,-3.89425 10.541992,-5.01261 -3.212719,6.34319 9.996768,7.43123 7.288617,1.67053 -1.217898,-8.18205 -2.435799,-16.36409 -3.653697,-24.54614 z m -90.830114,4.77128 c 7.155556,2.82263 -2.583201,11.85937 0,0 z m 19.826697,1.46451 c 2.402673,4.83075 -0.945244,18.81067 -0.895812,6.92026 0.273272,-2.30998 0.578294,-4.61601 0.895812,-6.92026 z m 30.8678828,0 c 2.4026722,4.83075 -0.945243,18.81067 -0.8958109,6.92026 0.2732717,-2.30998 0.5782931,-4.61601 0.8958109,-6.92026 z m 45.6819652,0 c 2.402673,4.83075 -0.945243,18.81067 -0.895811,6.92026 0.273273,-2.30998 0.578295,-4.61601 0.895811,-6.92026 z m -96.376545,9.07749 c 6.352689,0.43448 -1.478412,17.7027 0,0 z m 92.328729,30.88235 c -12.47417,0.51701 -7.748476,16.48527 -7.756114,24.60237 8.097157,11.69034 20.205453,-1.28851 16.14475,-11.91075 0.673801,-5.93479 -0.735266,-13.23099 -8.388636,-12.69162 z m 83.422817,0 c -13.75438,0.58126 -6.56329,16.87678 1.64073,20.04606 -0.7631,10.48695 -2.79536,-7.94694 -9.28884,-0.71823 -1.08456,20.35861 29.43214,3.24163 11.18794,-7.27416 -7.51917,-3.28994 -2.97331,-10.45706 -1.33447,-3.02735 10.62405,3.06769 5.93238,-10.5245 -2.20536,-9.02632 z m -244.77421,0.58549 v 27.88822 c 7.16309,1.92991 8.30213,-2.16422 7.25228,-8.44725 v -19.44097 z m 10.19783,0 v 27.88822 c 7.544185,2.42579 6.243999,-3.99278 6.063198,-9.29197 -0.419121,-7.94877 2.295129,5.61932 3.372821,7.94918 4.268177,4.47915 8.949799,-0.43715 6.75576,-6.25973 v -20.2857 c -7.544184,-2.42579 -6.243997,3.99279 -6.063197,9.29198 0.310724,7.2807 -2.657147,-6.21028 -3.902705,-8.78948 -1.230251,-1.19336 -4.353617,-0.15051 -6.225877,-0.5025 z m 17.845425,0 c -2.829835,7.80935 6.847998,3.11104 4.289142,10.64941 v 17.23881 c 7.163117,1.93012 8.301378,-2.16462 7.251755,-8.44725 1.065027,-4.11809 -2.176132,-12.54237 1.689452,-13.85991 6.304709,-0.26413 1.491943,-8.89336 -4.140541,-5.58106 z m 17.501256,0 v 27.88822 c 4.062545,-1.25523 13.712846,3.0773 12.574426,-3.3789 -0.780452,-2.84248 -9.262629,-2.75359 -4.477949,-8.33459 7.052239,1.23243 3.194288,-7.49258 -0.844724,-6.14983 -2.285469,-7.24061 7.971329,-1.93896 4.840533,-10.0249 z m 14.676106,0 v 27.88822 c 7.163118,1.93012 8.301374,-2.16463 7.251753,-8.44725 0.109718,-13.90693 4.597818,15.58624 3.04976,8.44725 8.752583,2.91192 5.983724,-8.17959 4.788005,-13.12581 -3.371178,0.20596 6.62145,-15.29669 -5.654521,-14.66327 -3.142475,-0.1576 -6.29009,-0.0803 -9.434997,-0.0991 z m 17.776693,0 c -2.829835,7.80935 6.848001,3.11103 4.289144,10.64941 v 17.23881 c 7.163117,1.93012 8.301376,-2.16462 7.251754,-8.44725 1.065027,-4.11809 -2.176133,-12.54237 1.68945,-13.85991 6.304172,-0.26467 1.491059,-8.89326 -4.141056,-5.58106 z m 17.50074,0 v 27.88822 c 4.062731,-1.25521 13.7131578,3.07726 12.5749433,-3.3789 -0.7804528,-2.84248 -9.2626263,-2.75359 -4.4779473,-8.33459 7.0516264,1.23232 3.1936593,-7.49244 -0.844725,-6.14983 -2.285358,-7.24033 7.9707453,-1.9392 4.8400147,-10.0249 z m 14.676107,0 v 27.88822 c 7.5586795,2.34831 6.6683593,-3.75239 6.339148,-9.29197 -0.088226,-6.50965 -0.1047421,-12.02598 0.9706597,-2.41711 1.8358114,3.73775 -1.2447083,13.1569 5.0783627,11.70908 2.9722766,-2.50061 1.6802366,-9.87747 3.0310846,-14.23218 0.995055,-9.65774 0.506497,2.8461 0.618009,6.38634 -1.86725,5.66941 1.645381,10.68994 6.338631,7.00112 v -27.0435 c -5.180765,-0.0652 -11.7013562,-1.65119 -10.2016723,5.86597 -0.7062647,10.88634 -1.528501,3.65579 -2.3598348,-3.12703 0.7563932,-5.08974 -6.8817057,-1.8083 -9.8143879,-2.73894 z m 25.287345,0 v 27.88822 c 7.163117,1.93012 8.301373,-2.16463 7.251753,-8.44725 0.993841,-4.80916 12.353136,-4.26341 8.298288,-13.91142 -0.415745,-7.89494 -10.356135,-4.93783 -15.550041,-5.52955 z m 37.000325,0 v 27.88822 c 7.163117,1.93012 8.301373,-2.16463 7.251753,-8.44725 0.109717,-13.90693 4.597818,15.58624 3.049759,8.44725 8.752583,2.91192 5.983724,-8.17959 4.788006,-13.12581 -3.371178,0.20596 6.621449,-15.29669 -5.654522,-14.66327 -3.142474,-0.1576 -6.29009,-0.0803 -9.434996,-0.0991 z m 21.049361,0 -3.68608,27.88822 c 7.50815,2.68099 6.519899,-3.89534 10.541992,-5.01261 -3.212727,6.34298 9.99636,7.43138 7.288101,1.67053 -1.217898,-8.18204 -2.435799,-16.36409 -3.653697,-24.54614 z m 15.881717,0 v 27.88822 c 4.256868,-1.03828 13.612485,3.02219 11.661825,-4.22362 -4.33728,-0.68238 -5.32016,-4.71915 -4.40955,-10.64941 -1.2914,-3.89172 2.83319,-13.19943 -2.53418,-13.01519 z m 13.435875,0 v 27.88822 c 4.06273,-1.25521 13.71316,3.07726 12.57494,-3.3789 -0.78045,-2.84248 -9.26263,-2.75359 -4.47795,-8.33459 7.05163,1.23232 3.19366,-7.49244 -0.84472,-6.14983 -2.28536,-7.24033 7.97074,-1.9392 4.84001,-10.0249 z m -61.443279,4.13412 c 2.158479,5.44672 0.801076,12.74355 0.89607,18.96525 -3.990401,-1.27372 -1.249379,-10.97659 -2.067058,-15.9334 l 0.292489,-2.58382 z m -18.672246,0.63717 c 6.171176,0.73232 -1.550898,16.29308 0,0 z m -75.240885,5.1e-4 c 6.206633,3.2472 -2.188064,11.05444 0,0 z m 112.24121,0 c 6.206633,3.2472 -2.188065,11.05444 0,0 z m 19.344039,1.464 c 2.40275,4.8307 -0.944272,18.81068 -0.895554,6.92025 0.273116,-2.30998 0.578035,-4.61602 0.895554,-6.92025 z m -85.74825278,34.99889 c -6.31272702,6.25611 1.88594118,5.50774 5.02929418,0.90861 3.496012,-1.82507 -4.23227702,-0.50522 -5.02929418,-0.90861 z m 83.75044178,4.96094 c -13.754814,0.58115 -6.563629,16.876737 1.640727,20.046064 -0.763379,10.487197 -2.79503,-7.946908 -9.288839,-0.718227 -1.08482,20.35861 29.431894,3.241336 11.187949,-7.274163 -7.51912,-3.290064 -2.973499,-10.457014 -1.334471,-3.027354 10.62337,3.067677 5.93218,-10.52496 -2.205366,-9.02632 z m -149.344886,0.58549 v 27.888225 c 7.558656,2.348453 6.667564,-3.752842 6.338631,-9.291978 -0.08822,-6.509652 -0.104741,-12.025967 0.970658,-2.417104 1.835812,3.737748 -1.244708,13.156896 5.078363,11.709082 2.972278,-2.500616 1.680236,-9.877469 3.031085,-14.232186 0.995055,-9.657729 0.506494,2.846105 0.618008,6.386341 -1.867432,5.669875 1.645756,10.689772 6.339149,7.001121 v -27.043501 c -5.180766,-0.0652 -11.701356,-1.65119 -10.201671,5.86598 -0.705991,10.886341 -1.529019,3.655789 -2.360353,-3.12704 0.756523,-5.08968 -6.881323,-1.80835 -9.81387,-2.73894 z m 27.319261,0 -3.68608,27.888225 c 7.507449,2.680669 6.520675,-3.894552 10.541992,-5.012613 -3.212742,6.3432 9.996825,7.431225 7.288559,1.670542 l -3.654155,-24.546154 z m 15.882235,0 c -0.868626,4.27631 0,27.888225 0,27.888225 7.163117,1.930115 8.301376,-2.164627 7.251754,-8.447254 0.109718,-13.906931 4.898489,6.332035 3.049759,8.447254 8.7525796,2.911912 8.3186205,-9.461178 4.7880051,-13.125812 -2.3433391,-2.43229 6.6214479,-15.296683 -5.6545211,-14.663273 -3.142475,-0.1576 -5.485241,0.48404 -7.356128,0.75135 z m 19.0169269,0 v 27.888225 c 7.1631169,1.930115 8.3013755,-2.164627 7.2517536,-8.447254 v -19.440971 z m 8.957076,0 c -2.8298348,7.80936 6.8480001,3.11104 4.2891437,10.649415 v 17.23881 c 7.1631164,1.930115 8.3013754,-2.164627 7.2517534,-8.447254 1.065028,-4.118091 -2.176132,-12.542371 1.689451,-13.859911 6.30471,-0.26412 1.491947,-8.89336 -4.140539,-5.58106 z m 17.5012571,0 v 27.888225 c 7.163116,1.930115 8.301377,-2.164627 7.251754,-8.447254 v -19.440971 z m 10.19731,0 v 27.888225 c 7.55868,2.348305 6.668362,-3.752389 6.339149,-9.291978 -0.08821,-6.509655 -0.104722,-12.025967 0.970476,-2.417077 1.835711,3.737731 -1.245087,13.156911 5.078029,11.709055 2.972278,-2.500616 1.680236,-9.877469 3.031085,-14.232186 0.995055,-9.657729 0.506494,2.846105 0.618008,6.386341 -1.867432,5.669875 1.645754,10.689772 6.339147,7.001121 v -27.043501 c -5.180767,-0.0652 -11.701354,-1.65119 -10.201669,5.86598 -0.706266,10.886322 -1.528501,3.655797 -2.359837,-3.12704 0.756398,-5.08974 -6.881704,-1.8083 -9.814388,-2.73894 z m 27.319779,0 -3.686596,27.888225 c 7.507687,2.680481 6.520905,-3.894245 10.541992,-5.012613 -3.212719,6.343198 9.996768,7.431233 7.288618,1.670534 -1.217899,-8.182049 -2.4358,-16.364096 -3.653698,-24.546146 z m -75.740595,4.77181 c 3.72,1.94623 2.194745,5.530582 0.846588,5.71014 -0.901173,0.120025 -1.723215,-1.281287 -0.846588,-5.71014 z m -17.587039,1.46399 c 2.40267,4.830752 -0.945245,18.810663 -0.895811,6.920251 0.27327,-2.309974 0.578292,-4.616011 0.895811,-6.920251 z m 98.874065,0 c 2.402674,4.830749 -0.945242,18.810663 -0.89581,6.920251 0.273272,-2.309974 0.578294,-4.616011 0.89581,-6.920251 z"
       id="path2406"
       inkscape:connector-curvature="0"
       sodipodi:nodetypes="ccccccccccccccccccccccccccccccccccccccccccccccccccccccccccccccccccccccccccccccccccccccccccccccccccccccccccccccccccccccccccccccccccccccccccccccccccccccccccccccccccccccccccccccccccccccccccccccccccccccccccccccccccscccccccccccccccccccccccccccccccccccccccsccccccc" />
  </g>
</svg>
